<?xml version="1.0" encoding="utf-8"?>
<!-- Generator: Adobe Illustrator 29.5.1, SVG Export Plug-In . SVG Version: 9.03 Build 0)  -->
<svg version="1.1" id="레이어_1" xmlns="http://www.w3.org/2000/svg" xmlns:xlink="http://www.w3.org/1999/xlink" x="0px"
	 y="0px" width="512px" height="204.2px" viewBox="0 0 512 204.2" enable-background="new 0 0 512 204.2" xml:space="preserve">
<path fill="#DF681B" d="M422.9,139.5c-9.1,0-18-0.4-26.4-1.2c-8.5-0.8-16.2-2.4-23-4.9c-6.9-2.6-12.5-6.4-16.9-11.5
	s-7.2-11.8-8.3-20.3c-1-7.7-0.3-14.4,2-20.3c2.4-6,5.9-10.8,10.3-14.2c4.6-3.6,9.6-5.4,15.2-5.4l-1.7-6.4c-4.9-0.3-8.8-2.5-11.8-6.6
	c-2.9-4.1-4.4-8.9-4.4-14.4c0-5.2,1.9-9.9,5.6-14c3.8-4.1,10.4-7.3,19.8-9.8c9.5-2.4,22.7-3.7,39.7-3.7c27.4,0,48,5.6,61.7,16.7
	s20.6,28.2,20.6,51.4c0,16.5-3,29.5-9.1,38.9S481,130,468.7,133.9C456.6,137.6,441.4,139.5,422.9,139.5z M384.7,69.5
	c0,5.1,2.7,8.6,8.1,10.5c5.6,2,15.2,2.9,28.9,2.9c13.9,0,23.6-1,29.1-2.9c5.7-2,8.6-5.5,8.6-10.5c0-5.2-2.8-8.8-8.3-10.8
	c-5.6-2-15.3-2.9-29.4-2.9c-13.5,0-23.1,1-28.6,2.9S384.7,64.3,384.7,69.5z"/>
<path fill="#F6DB9D" d="M451.1,58.7c-5.2-1.8-14.1-2.8-26.8-2.9h-2.6c-13.5,0-23.1,1-28.6,2.9l-0.5,0.2c-5.2,2-7.8,5.5-7.8,10.6V70
	c0.2,4.8,2.9,8.2,8.1,10.1c5.2,1.8,14,2.8,26.4,2.9h2.5c13.9,0,23.6-1,29.1-2.9s8.4-5.3,8.6-10.1v-0.5
	C459.4,64.3,456.6,60.7,451.1,58.7z M452,71.6c-0.4,0.5-1.3,1.3-3.4,2l0,0l0,0c-4.3,1.5-13,2.6-26.9,2.6c-13.7,0-22.2-1-26.6-2.5
	c-1.8-0.7-2.6-1.4-3-1.8c-0.3-0.4-0.6-1-0.6-2.3s0.3-2,0.7-2.5c0.4-0.5,1.2-1.2,3.1-1.9c4.4-1.5,12.9-2.6,26.4-2.6
	c14,0,22.8,1,27.1,2.6c1.9,0.7,2.7,1.4,3.1,1.9c0.3,0.4,0.7,1.1,0.7,2.5C452.6,70.6,452.3,71.2,452,71.6z"/>
<path fill="#F6DB9D" d="M488.9,18.2C473.5,5.7,451.1,0,422.9,0c-17.2,0-31.1,1.2-41.4,3.9c-9.9,2.6-18,6.2-23.1,11.8
	c-4.8,5.3-7.4,11.5-7.4,18.6c0,6.8,1.8,13.1,5.7,18.4c1.5,2.1,3.3,4,5.3,5.4c-2,1-3.9,2.2-5.7,3.6c-5.5,4.3-9.6,10.1-12.4,17v0.1
	c-2.8,7.1-3.5,15.1-2.4,23.6l0,0c1.3,9.4,4.4,17.6,9.9,23.9c5.2,6,11.8,10.4,19.6,13.4h0.1h0.1c7.5,2.7,15.7,4.4,24.7,5.3
	c8.7,0.8,17.8,1.3,27.1,1.3c18.8,0,34.8-1.9,47.8-5.9l0,0l0,0c13.5-4.3,24.1-11.9,31.1-22.9S512,92.1,512,74.9
	C512,50.3,504.7,30.9,488.9,18.2z M496.1,113.8l-0.6,0.9c-6,9-15,15.4-26.8,19.2l-1.1,0.3c-11.9,3.5-26.8,5.3-44.6,5.3
	c-9.1,0-18-0.4-26.4-1.2c-8.5-0.8-16.2-2.4-23-4.9c-6.9-2.6-12.5-6.4-16.9-11.5s-7.2-11.8-8.3-20.3c-0.9-7.2-0.4-13.6,1.5-19.2
	l0.4-1.1c2.3-5.7,5.5-10.2,9.5-13.5l0.8-0.7c4.6-3.6,9.6-5.4,15.2-5.4l-1.7-6.4c-4.9-0.3-8.8-2.5-11.8-6.6
	c-2.8-3.8-4.2-8.3-4.4-13.4v-1c0-5.2,1.9-9.9,5.6-14s10.4-7.3,19.8-9.8c9.5-2.4,22.7-3.7,39.7-3.7c27.4,0,48,5.6,61.7,16.7l0.6,0.5
	c13.3,11.1,19.9,28.1,19.9,50.9v1.5C505,92.2,502,104.6,496.1,113.8z"/>
<path fill="#DF681B" d="M231.4,136.1c-16.5,0-28.6-4-36.5-12.1c-7.7-8.3-11.5-18.4-11.5-30.5c0-7.1,1.1-13,3.2-17.6
	c2.3-4.8,4.9-8.4,7.8-10.9c3.1-2.6,5.9-4.4,8.3-5.2l-2.2-3.9c-5.1,0-9.5-2.4-13.2-7.2c-3.6-5-5.4-10.7-5.4-17.3
	c0-6.8,2-12.5,5.9-17.1C191.7,9.4,197,7,203.7,7h97.7c7.7,0,13.5,2.4,17.4,7.2c3.9,4.7,5.9,10.3,5.9,17.1c0,6.6-2,12.4-5.9,17.3
	c-3.9,4.8-9.7,7.2-17.4,7.2h-75.2c-3.3,0-5.6,0.8-7.1,2.4s-1.6,3.8-0.5,6.5c2.1,5.2,3.8,9.2,5.1,12.4s2.9,5.5,4.9,7s5,2.2,9.1,2.2
	h62.7c9.6,0,16.5,2.2,20.6,6.7c4.2,4.3,6.4,10.1,6.4,17.3c0,7.6-2.1,13.8-6.4,18.6c-4.2,4.8-11,7.2-20.3,7.2H231.4z"/>
<path fill="#F6DB9D" d="M325.9,88.1c-6-6.4-15.1-8.8-25.4-8.8h-62.7c-3.5,0-4.8-0.7-5-0.8c-0.7-0.5-1.7-1.7-2.7-4.2
	c-1.2-3-2.9-6.9-4.9-11.7c0.3,0,0.6-0.1,1-0.1h75.2c9.1,0,17.1-2.9,22.6-9.7l0,0l0,0c4.9-6.3,7.4-13.6,7.4-21.7
	c0-8.2-2.4-15.6-7.5-21.6C318.5,2.9,310.6,0,301.4,0h-97.7c-8.5,0-15.8,3.1-21.2,9.7c-5,6-7.4,13.4-7.4,21.5c0,8,2.2,15.2,6.7,21.5
	l0.1,0.1l0.1,0.1c2.3,2.9,4.9,5.3,7.9,7c-3.8,3.2-6.9,7.8-9.4,13.1V73c-2.7,5.8-3.8,12.8-3.8,20.5c0,13.7,4.4,25.6,13.4,35.2v0.1
	l0,0c9.6,9.9,23.9,14.2,41.3,14.2h69.3c10.3,0,19.4-2.6,25.4-9.5c5.6-6.3,8.1-14.2,8.1-23.2C334.2,101.5,331.6,94,325.9,88.1z
	 M321,128.9l-0.4,0.4c-4.3,4.5-10.9,6.8-19.9,6.8h-69.3c-16.5,0-28.6-4-36.5-12.1c-7.4-8-11.3-17.8-11.5-29.4v-1.1
	c0-6.7,0.9-12.3,2.8-16.7l0.4-0.9c2.3-4.8,4.9-8.4,7.8-10.9c3.1-2.6,5.9-4.4,8.3-5.2l-2.2-3.9c-5.1,0-9.5-2.4-13.2-7.2
	c-3.3-4.8-5.1-10.1-5.3-16.2v-1.2c0-6.8,2-12.5,5.9-17.1c3.8-4.7,8.9-7.1,15.3-7.2h0.6h97.7h0.7c7.3,0.1,12.9,2.5,16.7,7.2
	c3.9,4.7,5.9,10.3,5.9,17.1v1.2c-0.2,6.1-2.2,11.4-5.9,16.1l-0.4,0.4c-3.8,4.4-9.2,6.6-16.3,6.8h-0.7h-75.2h-0.6
	c-3,0.1-5.1,0.9-6.5,2.4c-1.5,1.6-1.6,3.8-0.5,6.5l5.1,12.4l0.2,0.6c1.3,2.8,2.8,5,4.6,6.4l0.4,0.3c1.8,1.2,4.5,1.8,7.9,1.9h0.8
	h62.7h0.9c9.2,0.1,15.7,2.3,19.7,6.7l0.4,0.4c4,4.3,6,9.9,6,16.9v1.4C327.1,118.7,325,124.3,321,128.9z"/>
<path fill="#DF681B" d="M49.2,139.5c-7.5,0-14.5-1.5-21.1-4.5c-6.4-3.1-11.5-7.6-15.4-13.4c-3.9-6-5.9-13.2-5.9-21.6
	c0-6.7,0.9-12,2.7-16.1c1.8-4.3,3.6-8.2,5.4-11.6c1.8-3.6,2.7-7.7,2.7-12.1V30.5c0-7.6,2-13.4,5.9-17.3C27.6,9,33.6,7,41.6,7
	c8.2,0,13.9,2,17.1,6.2c3.3,3.9,4.9,9.7,4.9,17.3v14.9h9.3V22.5c0-4.8,1.5-8.6,4.4-11.4c3.1-2.8,7.2-4.3,12.2-4.3
	c4.9,0,8.8,1.4,11.8,4.3c2.9,2.6,4.4,6.5,4.4,11.4v22.8h9.5V30.5c0-7.6,2-13.4,5.9-17.3C125.2,9,130.9,7,138.2,7
	c7.5,0,13.2,2,17.1,6.2c4.1,3.9,6.1,9.7,6.1,17.3v72.2c0,11-2.6,20-7.8,26.7c-5.1,6.8-12.4,10.1-22,10.1H49.2z M42.1,83.7
	c1.6,2.3,3.2,3.7,4.7,4.3c1.6,0.3,4.1,0.5,7.3,0.5H69c2.8,0,4.7-0.2,5.6-0.7c1-0.7,1.5-2,1.5-3.9v-6c0-1.8-0.5-3-1.5-3.7
	s-2.9-1-5.6-1H41.3c-1.6,0-2.8,0.6-3.4,1.7c-0.5,1.1-0.2,2.4,0.7,3.7L42.1,83.7z M90.5,84c1.6,2.4,3.3,3.8,4.9,4.3
	c1.8,0.2,4.4,0.2,7.8,0.2H118c2.8,0,4.7-0.2,5.6-0.7c1-0.7,1.5-2,1.5-3.9v-6c0-1.8-0.5-3-1.5-3.7s-2.9-1-5.6-1H90.1
	c-1.6,0-2.9,0.6-3.7,1.7c-0.7,1-0.4,2.2,0.7,3.7L90.5,84z"/>
<path fill="#F6DB9D" d="M74.6,74.1c-1-0.7-2.9-1-5.6-1H41.3H41c-1.5,0.1-2.5,0.6-3.1,1.7c-0.5,1.1-0.2,2.4,0.7,3.7l3.4,5.2
	c1.6,2.3,3.2,3.7,4.7,4.3c1.4,0.3,3.5,0.4,6.2,0.5h1.2H69c2.8,0,4.7-0.2,5.6-0.7c0.9-0.6,1.3-1.6,1.4-3.2v-0.7v-6
	C76.1,75.9,75.6,74.7,74.6,74.1z M69.3,81.6c-0.1,0-0.2,0-0.3,0H54.1c-2.4,0-4.1-0.1-5.1-0.2c-0.3-0.3-0.7-0.7-1.2-1.4H69
	c0.1,0,0.2,0,0.3,0V81.6z"/>
<path fill="#F6DB9D" d="M123.6,74.1c-1-0.7-2.9-1-5.6-1H90.1h-0.3c-1.5,0.1-2.6,0.6-3.4,1.7c-0.7,1-0.4,2.2,0.7,3.7l3.4,5.5
	c1.6,2.4,3.3,3.8,4.9,4.3c1.8,0.2,4.4,0.2,7.8,0.2H118c2.8,0,4.7-0.2,5.6-0.7c0.9-0.6,1.3-1.6,1.4-3.2v-0.7v-6
	C125.1,75.9,124.6,74.7,123.6,74.1z M118.3,81.6c-0.1,0-0.2,0-0.3,0h-14.7c-2.6,0-4.6-0.1-6.1-0.1c-0.2-0.2-0.5-0.6-1-1.2L96.1,80
	H118c0.1,0,0.2,0,0.3,0V81.6z"/>
<path fill="#F6DB9D" d="M160.2,8.2C154.7,2.4,147,0,138.3,0c-8.6,0-16.3,2.4-22,8.2c-2,2-3.6,4.4-4.8,6.9c-1-3.4-2.8-6.5-5.5-9
	C101.5,1.8,95.8,0,89.6,0c-6.4,0-12.2,1.8-16.8,6l-0.1,0.1l0,0c-2.5,2.3-4.2,5.2-5.2,8.2c-0.9-2-2.1-3.9-3.5-5.7l0,0
	C58.8,2.2,50.6,0,41.6,0c-9.1,0-17.1,2.3-22.9,8.2c-5.6,5.7-7.9,13.5-7.9,22.3v29.8c0,3.4-0.7,6.5-2,9c-1.9,3.6-3.7,7.6-5.5,11.9
	C1,86.6,0,92.9,0,100.1c0,9.5,2.2,18.1,7,25.4l0,0l0,0c4.6,6.8,10.7,12,18.1,15.7h0.1h0.1c7.4,3.4,15.4,5.1,23.8,5.1h82.5
	c11.4,0,20.9-4.2,27.5-12.9c6.4-8.3,9.2-18.8,9.2-30.9V30.5C168.4,21.7,166,13.9,160.2,8.2z M161.6,102.6c0,11-2.6,20-7.8,26.7
	c-5.1,6.8-12.4,10.1-22,10.1H49.2h-1.4c-7-0.2-13.5-1.6-19.7-4.5c-6.4-3.1-11.5-7.6-15.4-13.4c-3.7-5.6-5.6-12.3-5.9-20V100
	c0-6.6,0.9-11.9,2.7-16c1.8-4.3,3.6-8.2,5.4-11.6c1.7-3.4,2.6-7.2,2.7-11.3v-0.8V30.5c0-7.4,1.8-13.1,5.5-17l0.4-0.4
	c4.1-4.2,10.1-6.2,18.1-6.2h1.5c7.4,0.2,12.6,2.3,15.6,6.2c3.3,3.9,4.9,9.7,4.9,17.3v14.9h9.3V22.5c0-4.8,1.5-8.6,4.4-11.4
	c3.1-2.8,7.2-4.3,12.2-4.3h0.9c4.5,0.2,8.1,1.5,10.8,4.2l0.5,0.5c2.6,2.6,3.9,6.3,3.9,10.9v22.8h9.5V30.5c0-7.4,1.8-13.1,5.5-17
	l0.4-0.4c4.1-4.2,9.8-6.2,17.1-6.2h1.4c6.8,0.2,12.1,2.3,15.8,6.2c4.1,3.9,6.1,9.7,6.1,17.3v72.2H161.6z"/>
<g>
	<g>
		<path fill="#F6DB9D" d="M221.8,174.6v-5.1c0-1-0.2-2.7-1.5-4l0,0c-0.1-0.1-0.1-0.1-0.2-0.2c-0.1-0.1-0.1-0.1-0.2-0.2l0,0
			c-1.4-1.3-3.1-1.5-4-1.5h-20.1c-1.1,0-2.9,0.3-4.3,1.7c-0.1,0.1-0.2,0.2-0.3,0.3l-0.1-0.1l0,0c-0.1-0.1-0.1-0.1-0.2-0.2
			c-0.1-0.1-0.1-0.1-0.2-0.2l0,0c-1.4-1.3-3.1-1.5-4-1.5h-6.5c-1.1,0-2.9,0.3-4.3,1.7c-0.7,0.7-1.1,1.5-1.3,2.2l-1.1-1.3l0,0
			c-0.7-0.8-1.5-1.5-2.6-2l0,0c0,0,0,0-0.1,0l0,0l0,0c-1.1-0.5-2.1-0.6-3.1-0.6h-4.5c-1.1,0-2.9,0.3-4.3,1.7
			c-0.8,0.8-1.2,1.6-1.4,2.4c-0.4-0.5-0.9-0.9-1.4-1.3l0,0l0,0l0,0l0,0c-1.6-1.3-3.6-2.1-5.7-2.6l0,0l0,0l0,0l0,0
			c-2.2-0.5-4.8-0.8-7.7-0.8s-5.5,0.2-7.7,0.8c-2.1,0.5-4.1,1.3-5.8,2.6l0,0l0,0c-0.4,0.3-0.8,0.7-1.2,1.1c-0.2-0.7-0.6-1.4-1.2-2
			l0,0c-0.1-0.1-0.1-0.1-0.2-0.2c-0.1-0.1-0.1-0.1-0.2-0.2l0,0c-1.4-1.3-3.1-1.5-4-1.5h-19.9c-1.1,0-2.9,0.3-4.3,1.7l-0.1,0.1
			l-0.1-0.1c-0.1-0.1-0.1-0.1-0.2-0.2l0,0c-1.4-1.3-3.1-1.5-4-1.5h-6.6c-1.1,0-2.9,0.3-4.3,1.7c-0.4,0.4-0.7,0.8-0.9,1.2
			c-0.2-0.3-0.4-0.7-0.7-1l0,0c-0.1-0.1-0.1-0.1-0.2-0.2c-0.1-0.1-0.1-0.1-0.2-0.2l0,0c-1.4-1.3-3.1-1.5-4-1.5H70
			c-1.1,0-2.9,0.3-4.3,1.7c-0.7,0.7-1.1,1.5-1.3,2.2c-0.4-0.4-0.8-0.8-1.2-1.1l0,0l0,0l0,0l0,0c-1.6-1.3-3.6-2.1-5.7-2.6l0,0l0,0
			l0,0l0,0c-2.2-0.5-4.8-0.8-7.7-0.8s-5.5,0.2-7.7,0.8c-2.1,0.5-4.1,1.3-5.8,2.6l0,0l0,0c-1.1,0.8-1.9,1.8-2.6,3
			c-0.6-0.9-1.3-1.8-2.2-2.6l0,0l0,0l0,0l0,0c-2.9-2.4-6.7-3.2-10.8-3.2H5.9c-1.1,0-2.9,0.3-4.3,1.7S0,168.6,0,169.5v28.1
			c0,1,0.2,2.7,1.4,4.1l0.2,0.2l0.2,0.2c1.4,1.2,3.1,1.4,4.1,1.4h14.6c4,0,7.9-0.8,10.8-3.2l0,0l0,0l0,0l0,0
			c0.9-0.8,1.6-1.6,2.2-2.5c0.7,1.1,1.6,2.2,2.6,3h0.1h0.1c1.6,1.2,3.6,2,5.7,2.5c2.2,0.5,4.8,0.8,7.7,0.8s5.5-0.2,7.7-0.8l0,0l0,0
			l0,0l0,0c2.1-0.5,4.1-1.3,5.7-2.5l0,0c1.1-0.8,2-1.8,2.7-3c0.7,1.1,1.6,2.1,2.6,3h0.1h0.1c1.6,1.2,3.6,2,5.7,2.5
			c2.2,0.6,4.8,0.8,7.7,0.8c2.9,0,5.5-0.2,7.7-0.8c2.1-0.5,4-1.3,5.7-2.5l0,0c0.3-0.2,0.6-0.5,0.9-0.8c0.2,0.6,0.5,1.1,1,1.7
			l0.2,0.2l0.2,0.2c1.4,1.2,3.1,1.4,4.1,1.4h21.5c1,0,2.8-0.2,4.2-1.6c0.5-0.5,0.9-1.1,1.1-1.7c0.2,0.2,0.4,0.4,0.6,0.6h0.1h0.1
			c1.6,1.2,3.6,2,5.7,2.5c2.2,0.5,4.8,0.8,7.7,0.8s5.5-0.2,7.7-0.8l0,0l0,0l0,0l0,0c2.1-0.5,4.1-1.3,5.7-2.5l0,0
			c0.5-0.4,1-0.9,1.5-1.4c0.2,0.7,0.6,1.5,1.2,2.3l0.2,0.2l0.2,0.2c1.4,1.2,3.1,1.4,4.1,1.4h6.5c1,0,2.8-0.2,4.2-1.6
			c0.5-0.5,0.8-0.9,1-1.4c0.2,0.4,0.5,0.8,0.8,1.2l0.2,0.2l0.2,0.2c1.4,1.2,3.1,1.4,4.1,1.4h6.5c1,0,2.8-0.2,4.2-1.6
			c0.1-0.1,0.2-0.2,0.3-0.3l0.1,0.1l0.2,0.2l0.2,0.2c1.4,1.2,3.1,1.4,4.1,1.4h20.1c1,0,2.8-0.2,4.2-1.6c1.4-1.4,1.7-3.1,1.7-4.3
			v-5.1c0-1-0.2-2.7-1.5-4l0,0c-0.1-0.1-0.1-0.1-0.2-0.2c-0.1-0.1-0.1-0.1-0.2-0.2l0,0c-0.6-0.5-1.2-0.9-1.8-1.1
			c0.1-0.5,0.1-1,0.1-1.3v-4.6c0-0.3,0-0.6-0.1-1c0.6-0.2,1.3-0.6,1.9-1.2C221.6,177.5,221.8,175.8,221.8,174.6z M99.6,180.1
			c1,0.5,2.1,0.6,2.8,0.6h0.1l-2.9,3.5V180.1z M124.8,186.8c-0.7-0.2-1.3-0.2-1.7-0.2h-1.2l2.9-3.5
			C124.8,183.1,124.8,186.8,124.8,186.8z"/>
		<path fill="#F6DB9D" d="M510.3,179.1c1.4-1.4,1.7-3.1,1.7-4.3v-5.2c0-1-0.2-2.7-1.5-4l0,0c-0.1-0.1-0.1-0.1-0.2-0.2
			c-0.1-0.1-0.1-0.1-0.2-0.2l0,0c-1.4-1.3-3.1-1.5-4-1.5h-18.5c-1.1,0-2.9,0.3-4.3,1.7c-1.2,1.2-1.5,2.6-1.6,3.6
			c-0.4-0.6-0.8-1.2-1.3-1.8l0,0l0,0l0,0l0,0c-2.5-2.7-6.3-3.4-9.8-3.4h-14.4c-1.1,0-2.9,0.3-4.3,1.7c-0.8,0.8-1.2,1.6-1.4,2.4
			c-0.4-0.5-0.9-0.9-1.4-1.3l0,0l0,0l0,0l0,0c-1.6-1.3-3.6-2.1-5.7-2.6l0,0l0,0l0,0l0,0c-2.2-0.5-4.8-0.8-7.7-0.8
			c-2.9,0-5.5,0.2-7.7,0.8c-2.1,0.5-4.1,1.3-5.8,2.6l0,0l0,0c-1.1,0.8-1.9,1.8-2.6,3c-0.6-0.9-1.3-1.8-2.2-2.6l0,0l0,0l0,0l0,0
			c-2.9-2.4-6.7-3.2-10.8-3.2H392c-1.1,0-2.9,0.3-4.3,1.7c-0.7,0.7-1.1,1.5-1.3,2.3c-0.2-0.7-0.6-1.4-1.2-2.1l0,0
			c-0.1-0.1-0.1-0.1-0.2-0.2c-0.1-0.1-0.1-0.1-0.2-0.2l0,0c-1.4-1.3-3.1-1.5-4-1.5H370c-4.1,0-7.9,0.8-10.8,3.2l0,0l0,0
			c-0.4,0.4-0.8,0.8-1.2,1.2c-0.2-0.8-0.6-1.7-1.3-2.5l0,0c-0.1-0.1-0.1-0.1-0.2-0.2c-0.1-0.1-0.1-0.1-0.2-0.2l0,0
			c-1.4-1.3-3.1-1.5-4-1.5h-6.5c-1.1,0-2.9,0.3-4.3,1.7c-0.7,0.7-1.1,1.5-1.3,2.2l-1.1-1.3l0,0c-0.7-0.8-1.5-1.5-2.6-2l0,0
			c0,0,0,0-0.1,0c0,0,0,0-0.1,0l0,0c-1.1-0.5-2.1-0.6-3.1-0.6h-4.5c-1.1,0-2.9,0.3-4.3,1.7s-1.6,3.3-1.6,4.2v4.7l-2.4-6.3l0,0
			c-0.4-1.2-1.2-2.3-2.5-3.1l0,0c0,0,0,0-0.1,0c0,0,0,0-0.1,0l0,0c-1.2-0.8-2.5-1-3.6-1h-11.7c-1.1,0-2.5,0.2-3.7,1h-0.1h-0.1
			c-1.3,0.8-2,2-2.4,3.1l0,0l-3.8,9.8l0,0c-0.3,0.7-0.5,1.3-0.7,1.9l0,0c0.2-1,0.3-1.9,0.3-2.9v-2.1c0-3.1-1-6.2-3.7-8.4l0,0l0,0
			l0,0l0,0c-2.5-2-5.7-2.6-9-2.6h-13.8c-1.1,0-2.9,0.3-4.3,1.7s-1.6,3.3-1.6,4.2v0.2c-0.6-1.3-1.4-2.5-2.7-3.5l0,0l0,0l0,0l0,0
			c-2.5-2-5.7-2.6-9-2.6H234c-1.1,0-2.9,0.3-4.3,1.7c-1.4,1.4-1.6,3.3-1.6,4.2v28.1c0,1,0.2,2.7,1.4,4.1l0.2,0.2l0.2,0.2
			c1.4,1.2,3.1,1.4,4.1,1.4h16.7c3.3,0,6.6-0.6,9.1-2.7l0,0l0,0l0,0l0,0c0.1-0.1,0.2-0.2,0.3-0.3c0.2,0.4,0.5,0.9,0.8,1.3l0.2,0.2
			l0.2,0.2c1.4,1.2,3.1,1.4,4.1,1.4H282c3.3,0,6.5-0.6,9-2.7c0.2,0.3,0.4,0.6,0.6,0.9l0.2,0.2l0.2,0.2c1.4,1.2,3.1,1.4,4.1,1.4h6.4
			c1,0,2.8-0.2,4.2-1.6c0.5-0.5,0.9-1.1,1.2-1.7c0.3,0.6,0.6,1.2,1.2,1.7l0.2,0.2l0.2,0.1c1.4,1.1,3,1.3,4,1.3h6.5
			c1,0,2.8-0.2,4.2-1.6l0.2,0.2c1.4,1.2,3.1,1.4,4.1,1.4h6.5c1,0,2.8-0.2,4.2-1.6c0.5-0.5,0.8-0.9,1-1.4c0.2,0.4,0.5,0.8,0.8,1.2
			l0.2,0.2l0.2,0.2c1.4,1.2,3.1,1.4,4.1,1.4h6.5c1,0,2.8-0.2,4.2-1.6c0.8-0.8,1.2-1.8,1.5-2.7c0.4,0.4,0.7,0.8,1.2,1.2l0,0l0,0
			c2.9,2.4,6.7,3.2,10.8,3.2h13.7c0.9,0,2.7-0.2,4.2-1.6l0.1,0.1c1.4,1.2,3.1,1.4,4.1,1.4h14.6c4,0,7.9-0.8,10.8-3.2l0,0l0,0l0,0
			l0,0c0.9-0.8,1.6-1.6,2.2-2.5c0.7,1.1,1.6,2.2,2.6,3h0.1h0.1c1.6,1.2,3.6,2,5.7,2.5c2.2,0.5,4.8,0.8,7.7,0.8
			c2.9,0,5.5-0.2,7.7-0.8l0,0l0,0l0,0l0,0c2.1-0.5,4.1-1.3,5.7-2.5l0,0c0.5-0.4,1-0.9,1.5-1.4c0.2,0.7,0.6,1.5,1.2,2.3l0.2,0.2
			l0.2,0.2c1.4,1.2,3.1,1.4,4.1,1.4h6.7c1,0,2.8-0.2,4.2-1.6c0.6-0.6,0.9-1.2,1.2-1.8c0.2,0.5,0.5,1.1,1,1.6l0.2,0.2l0.2,0.2
			c1.4,1.2,3.1,1.4,4.1,1.4h6.7c0.8,0,2.3-0.1,3.6-1.1c1.3,0.9,2.7,1.1,3.7,1.1h18.5c1,0,2.8-0.2,4.2-1.6c1.4-1.4,1.7-3.1,1.7-4.3
			v-5.2c0-1-0.2-2.7-1.5-4l0,0c-0.1-0.1-0.1-0.1-0.2-0.2c-0.1-0.1-0.1-0.1-0.2-0.2l0,0c-1.3-1.2-2.9-1.5-3.9-1.5v-5.9
			C507.2,180.7,509,180.5,510.3,179.1z M385.9,178.8c-0.2-0.1-0.5-0.2-0.7-0.2c0.3-0.4,0.5-0.7,0.7-1.1V178.8z M483.7,181.2
			L483.7,181.2L483.7,181.2L483.7,181.2L483.7,181.2c-0.3-0.3-0.5-0.5-0.7-0.7c0.1-0.5,0.2-1,0.3-1.5l0.1,0.1l0.2,0.2
			c1.4,1.2,3,1.4,4.1,1.4v5.9c-0.4,0-0.9,0-1.5,0.2C485.9,184.7,485.1,182.8,483.7,181.2z"/>
	</g>
	<path fill="#DF681B" d="M20.5,199.2H5.9c-0.5,0-1-0.1-1.2-0.3c-0.2-0.3-0.3-0.7-0.3-1.2v-28.1c0-0.5,0.1-0.9,0.3-1.2
		c0.3-0.3,0.7-0.4,1.2-0.4h14.6c3.6,0,6.3,0.7,8,2.2c1.8,1.4,2.6,3.7,2.6,6.7v13.5c0,3-0.9,5.2-2.6,6.7
		C26.8,198.5,24.1,199.2,20.5,199.2z M14.2,176.3V191h5.2c0.7,0,1.2-0.2,1.5-0.5s0.5-0.9,0.5-1.6v-10.5c0-0.7-0.2-1.2-0.5-1.6
		c-0.3-0.3-0.8-0.5-1.5-0.5L14.2,176.3L14.2,176.3z M63.1,191c0,1.3-0.2,2.5-0.6,3.6c-0.4,1.1-1.1,2-2.1,2.8s-2.4,1.3-4.1,1.8
		c-1.7,0.4-3.9,0.7-6.6,0.7s-4.9-0.2-6.7-0.7c-1.8-0.4-3.2-1-4.2-1.8s-1.7-1.7-2.1-2.8c-0.4-1.1-0.6-2.3-0.6-3.6v-14.8
		c0-1.3,0.2-2.5,0.6-3.6c0.4-1.1,1.1-2,2.1-2.8s2.4-1.4,4.2-1.8c1.8-0.4,4-0.7,6.7-0.7s4.9,0.2,6.6,0.7c1.8,0.4,3.1,1,4.1,1.8
		s1.7,1.7,2.1,2.8c0.4,1.1,0.6,2.3,0.6,3.6V191z M46.1,189.4c0,0.6,0.2,1.1,0.7,1.5c0.4,0.4,1.4,0.6,3,0.6s2.6-0.2,3-0.6
		c0.4-0.4,0.7-0.9,0.7-1.5v-11.7c0-0.5-0.2-1-0.7-1.4c-0.4-0.4-1.4-0.6-3-0.6s-2.6,0.2-3,0.6c-0.4,0.4-0.7,0.8-0.7,1.4V189.4z
		 M95.2,191c0,1.3-0.2,2.5-0.6,3.6s-1.1,2-2.1,2.8s-2.3,1.3-4.1,1.8c-1.7,0.4-3.9,0.7-6.6,0.7s-4.9-0.2-6.6-0.7
		c-1.7-0.4-3.1-1-4.1-1.8s-1.7-1.7-2.1-2.8s-0.6-2.3-0.6-3.6v-21.5c0-0.5,0.1-0.9,0.3-1.2c0.3-0.3,0.7-0.4,1.2-0.4h6.8
		c0.5,0,0.9,0.1,1.2,0.4c0.3,0.2,0.4,0.6,0.4,1.2v19.8c0,0.6,0.2,1.1,0.7,1.5c0.4,0.4,1.4,0.6,2.9,0.6s2.5-0.2,2.9-0.6
		c0.4-0.4,0.7-0.9,0.7-1.5v-19.8c0-0.5,0.1-0.9,0.3-1.2c0.3-0.3,0.7-0.4,1.2-0.4h6.6c0.5,0,0.9,0.1,1.2,0.4c0.3,0.2,0.4,0.6,0.4,1.2
		C95.2,169.5,95.2,191,95.2,191z M123.1,199.2h-21.5c-0.5,0-1-0.1-1.2-0.3c-0.2-0.3-0.3-0.7-0.3-1.2v-5.8c0-0.5,0.1-1,0.3-1.4
		c0.2-0.4,0.4-0.9,0.8-1.3l10.5-12.8h-9.3c-0.5,0-1-0.1-1.2-0.3c-0.2-0.3-0.3-0.7-0.3-1.2v-5.2c0-0.5,0.1-0.9,0.3-1.2
		c0.3-0.3,0.7-0.4,1.2-0.4h19.9c0.5,0,0.9,0.1,1.2,0.4c0.3,0.2,0.4,0.6,0.4,1.2v6.5c0,0.6-0.1,1.1-0.3,1.5c-0.2,0.4-0.4,0.8-0.8,1.2
		l-10.1,12.2h10.4c0.5,0,0.9,0.1,1.2,0.4c0.3,0.2,0.4,0.6,0.4,1.2v5.2c0,0.5-0.1,1-0.4,1.2C124,199.1,123.6,199.2,123.1,199.2z
		 M156.1,191c0,1.3-0.2,2.5-0.6,3.6c-0.4,1.1-1.1,2-2.1,2.8s-2.4,1.3-4.1,1.8c-1.7,0.4-3.9,0.7-6.6,0.7c-2.7,0-4.9-0.2-6.7-0.7
		c-1.8-0.4-3.2-1-4.2-1.8s-1.7-1.7-2.1-2.8c-0.4-1.1-0.6-2.3-0.6-3.6v-14.8c0-1.3,0.2-2.5,0.6-3.6c0.4-1.1,1.1-2,2.1-2.8
		s2.4-1.4,4.2-1.8c1.8-0.4,4-0.7,6.7-0.7s4.9,0.2,6.6,0.7c1.8,0.4,3.1,1,4.1,1.8s1.7,1.7,2.1,2.8c0.4,1.1,0.6,2.3,0.6,3.6V191z
		 M139,189.4c0,0.6,0.2,1.1,0.7,1.5c0.4,0.4,1.4,0.6,3,0.6s2.6-0.2,3-0.6c0.4-0.4,0.7-0.9,0.7-1.5v-11.7c0-0.5-0.2-1-0.7-1.4
		c-0.4-0.4-1.4-0.6-3-0.6s-2.6,0.2-3,0.6c-0.4,0.4-0.7,0.8-0.7,1.4V189.4z M169.7,199.2h-6.5c-0.6,0-1-0.1-1.2-0.3
		c-0.2-0.3-0.3-0.7-0.3-1.2v-28.1c0-0.5,0.1-0.9,0.3-1.2c0.3-0.3,0.7-0.4,1.2-0.4h4.5c0.5,0,1,0.1,1.4,0.3s0.8,0.5,1.2,0.9l8.4,9.6
		v-9.2c0-0.5,0.1-0.9,0.3-1.2c0.3-0.3,0.7-0.4,1.2-0.4h6.5c0.5,0,0.9,0.1,1.2,0.4c0.3,0.2,0.4,0.6,0.4,1.2v28.1c0,0.5-0.1,1-0.4,1.2
		c-0.2,0.2-0.6,0.3-1.2,0.3h-6.5c-0.6,0-1-0.1-1.2-0.3c-0.2-0.3-0.3-0.7-0.3-1.2v-5.3l-7.4-9v14.3c0,0.5-0.1,1-0.4,1.2
		S170.2,199.2,169.7,199.2z M215.9,199.2h-20.1c-0.5,0-1-0.1-1.2-0.3c-0.2-0.3-0.3-0.7-0.3-1.2v-28.1c0-0.5,0.1-0.9,0.3-1.2
		c0.3-0.3,0.7-0.4,1.2-0.4h20.1c0.6,0,0.9,0.1,1.2,0.4c0.3,0.2,0.4,0.6,0.4,1.2v5.1c0,0.5-0.1,1-0.4,1.2c-0.2,0.2-0.6,0.3-1.2,0.3
		h-12v3.3h8.5c0.6,0,0.9,0.1,1.2,0.4c0.3,0.2,0.4,0.6,0.4,1.2v4.6c0,0.5-0.1,1-0.4,1.2c-0.2,0.2-0.6,0.3-1.2,0.3H204v3.7h12
		c0.6,0,0.9,0.1,1.2,0.4c0.3,0.2,0.4,0.6,0.4,1.2v5.1c0,0.5-0.1,1-0.4,1.2C216.9,199.1,216.5,199.2,215.9,199.2z M250.6,199.2h-16.7
		c-0.5,0-1-0.1-1.2-0.3c-0.2-0.3-0.3-0.7-0.3-1.2v-28.1c0-0.5,0.1-0.9,0.3-1.2c0.3-0.3,0.7-0.4,1.2-0.4h13.8c2.8,0,4.9,0.5,6.3,1.6
		c1.4,1.1,2,2.7,2,5v2.1c0,1.2-0.2,2.2-0.7,3c-0.4,0.8-1,1.3-1.9,1.7c1.9,0.2,3.2,0.8,4.1,1.9c0.9,1.1,1.3,2.7,1.3,4.8v4
		c0,2.4-0.7,4.2-2.1,5.4C255.5,198.6,253.4,199.2,250.6,199.2z M242.1,175.4v4.7h3.7c0.6,0,1-0.1,1.2-0.4c0.3-0.3,0.4-0.7,0.4-1.3
		v-1.2c0-0.6-0.1-1-0.4-1.3c-0.3-0.3-0.7-0.4-1.2-0.4h-3.7V175.4z M242.1,186.7v5.1h5.6c0.6,0,1-0.1,1.2-0.4
		c0.3-0.3,0.4-0.7,0.4-1.3v-1.7c0-0.6-0.1-1-0.4-1.3c-0.3-0.3-0.7-0.4-1.2-0.4L242.1,186.7L242.1,186.7z M282,199.2h-16.7
		c-0.6,0-1-0.1-1.2-0.3c-0.2-0.3-0.3-0.7-0.3-1.2v-28.1c0-0.5,0.1-0.9,0.3-1.2c0.3-0.3,0.7-0.4,1.2-0.4h13.8c2.8,0,4.9,0.5,6.3,1.6
		s2,2.7,2,5v2.1c0,1.2-0.2,2.2-0.7,3c-0.4,0.8-1,1.3-1.9,1.7c1.8,0.2,3.2,0.8,4.1,1.9c0.9,1.1,1.3,2.7,1.3,4.8v4
		c0,2.4-0.7,4.2-2.1,5.4C287,198.6,284.9,199.2,282,199.2z M273.5,175.4v4.7h3.7c0.5,0,1-0.1,1.2-0.4c0.3-0.3,0.4-0.7,0.4-1.3v-1.2
		c0-0.6-0.1-1-0.4-1.3s-0.7-0.4-1.2-0.4h-3.7V175.4z M273.5,186.7v5.1h5.6c0.5,0,1-0.1,1.2-0.4c0.3-0.3,0.4-0.7,0.4-1.3v-1.7
		c0-0.6-0.1-1-0.4-1.3s-0.7-0.4-1.2-0.4L273.5,186.7L273.5,186.7z M306.5,177.1l-2,6.6h6.8l-2-6.6c-0.1-0.3-0.2-0.4-0.4-0.6
		c-0.1-0.1-0.3-0.2-0.4-0.2h-1.1c-0.2,0-0.3,0.1-0.5,0.2C306.7,176.6,306.6,176.8,306.5,177.1z M304,197.6c0,0.5-0.1,1-0.4,1.2
		c-0.2,0.2-0.6,0.3-1.2,0.3H296c-0.6,0-1-0.1-1.2-0.3c-0.2-0.3-0.3-0.7-0.3-1.2v-11.4c0-0.9,0.1-1.9,0.4-3s0.7-2.4,1.3-3.9l3.8-9.8
		c0.2-0.5,0.4-0.9,0.8-1.1c0.4-0.2,0.9-0.3,1.4-0.3h11.7c0.5,0,1,0.1,1.3,0.3c0.4,0.2,0.7,0.6,0.8,1.1l3.8,9.8
		c0.6,1.5,1,2.8,1.3,3.9c0.3,1.1,0.4,2.1,0.4,3v11.4c0,0.5-0.1,1-0.4,1.2c-0.2,0.2-0.6,0.3-1.2,0.3h-6.5c-0.6,0-1-0.1-1.3-0.3
		c-0.3-0.3-0.4-0.7-0.4-1.2v-6.1H304V197.6z M334.9,199.2h-6.5c-0.5,0-1-0.1-1.2-0.3c-0.2-0.3-0.3-0.7-0.3-1.2v-28.1
		c0-0.5,0.1-0.9,0.3-1.2c0.3-0.3,0.7-0.4,1.2-0.4h4.5c0.5,0,1,0.1,1.4,0.3s0.8,0.5,1.2,0.9l8.4,9.6v-9.2c0-0.5,0.1-0.9,0.3-1.2
		c0.3-0.3,0.7-0.4,1.2-0.4h6.5c0.5,0,0.9,0.1,1.2,0.4c0.3,0.2,0.4,0.6,0.4,1.2v28.1c0,0.5-0.1,1-0.4,1.2c-0.2,0.2-0.6,0.3-1.2,0.3
		h-6.5c-0.5,0-1-0.1-1.2-0.3c-0.2-0.3-0.3-0.7-0.3-1.2v-5.3l-7.4-9v14.3c0,0.5-0.1,1-0.4,1.2C335.9,199.1,335.5,199.2,334.9,199.2z
		 M383.4,199.2h-13.7c-3.6,0-6.3-0.7-8.1-2.2c-1.7-1.4-2.6-3.7-2.6-6.7v-13.5c0-3,0.9-5.2,2.6-6.7c1.8-1.4,4.5-2.2,8.1-2.2h10.8
		c0.5,0,0.9,0.1,1.2,0.4c0.3,0.2,0.4,0.6,0.4,1.2v5.2c0,0.5-0.1,1-0.4,1.2c-0.2,0.2-0.6,0.3-1.2,0.3h-9c-0.9,0-1.6,0.2-2,0.6
		c-0.4,0.3-0.7,0.9-0.7,1.6v10.4c0,0.7,0.2,1.3,0.5,1.6s0.9,0.5,1.5,0.5h4.2v-6.8c0-0.5,0.1-0.9,0.3-1.2c0.3-0.3,0.7-0.4,1.2-0.4
		h6.7c0.5,0,0.9,0.1,1.2,0.4c0.3,0.2,0.4,0.6,0.4,1.2v13.4c0,0.5-0.1,1-0.4,1.2C384.3,199.1,383.9,199.2,383.4,199.2z M406.4,199.2
		h-14.6c-0.6,0-1-0.1-1.2-0.3c-0.2-0.3-0.3-0.7-0.3-1.2v-28.1c0-0.5,0.1-0.9,0.3-1.2c0.3-0.3,0.7-0.4,1.2-0.4h14.6
		c3.6,0,6.3,0.7,8,2.2c1.8,1.4,2.6,3.7,2.6,6.7v13.5c0,3-0.9,5.2-2.6,6.7C412.7,198.5,410,199.2,406.4,199.2z M400.1,176.3V191h5.2
		c0.7,0,1.2-0.2,1.5-0.5s0.5-0.9,0.5-1.6v-10.5c0-0.7-0.2-1.2-0.5-1.6c-0.3-0.3-0.8-0.5-1.5-0.5L400.1,176.3L400.1,176.3z M449,191
		c0,1.3-0.2,2.5-0.6,3.6s-1.1,2-2.1,2.8s-2.4,1.3-4.1,1.8c-1.7,0.4-3.9,0.7-6.6,0.7s-4.9-0.2-6.7-0.7c-1.8-0.4-3.2-1-4.2-1.8
		s-1.7-1.7-2.1-2.8s-0.6-2.3-0.6-3.6v-14.8c0-1.3,0.2-2.5,0.6-3.6s1.1-2,2.1-2.8s2.4-1.4,4.2-1.8c1.8-0.4,4-0.7,6.7-0.7
		s4.9,0.2,6.6,0.7c1.8,0.4,3.1,1,4.1,1.8s1.7,1.7,2.1,2.8s0.6,2.3,0.6,3.6V191z M431.9,189.4c0,0.6,0.2,1.1,0.7,1.5
		c0.4,0.4,1.4,0.6,3,0.6s2.6-0.2,3-0.6c0.4-0.4,0.7-0.9,0.7-1.5v-11.7c0-0.5-0.2-1-0.7-1.4c-0.4-0.4-1.4-0.6-3-0.6s-2.6,0.2-3,0.6
		c-0.4,0.4-0.7,0.8-0.7,1.4V189.4z M464.3,175.8v5.6h3.3c0.8,0,1.3-0.2,1.5-0.6c0.3-0.4,0.4-0.9,0.4-1.5v-1.5c0-0.6-0.1-1.1-0.4-1.4
		c-0.3-0.4-0.8-0.6-1.5-0.6H464.3z M462.8,199.2h-6.7c-0.6,0-1-0.1-1.2-0.3c-0.2-0.3-0.3-0.7-0.3-1.2v-28.1c0-0.5,0.1-0.9,0.3-1.2
		c0.3-0.3,0.7-0.4,1.2-0.4h14.4c3.2,0,5.5,0.7,6.7,2s1.9,3.1,1.9,5.2v2c0,1.2-0.2,2.3-0.6,3.1c-0.3,0.8-1,1.4-1.9,1.8
		c1.6,0.2,2.8,0.8,3.8,1.9c1,1.1,1.5,2.6,1.5,4.4v9.2c0,0.5-0.1,1-0.4,1.2c-0.2,0.2-0.6,0.3-1.2,0.3h-6.7c-0.6,0-1-0.1-1.2-0.3
		c-0.2-0.3-0.3-0.7-0.3-1.2V191c0-0.6-0.1-1.1-0.4-1.4c-0.2-0.3-0.7-0.5-1.3-0.5h-6.1v8.5c0,0.5-0.1,1-0.4,1.2
		C463.7,199.1,463.3,199.2,462.8,199.2z M487.6,199.2c-0.5,0-1-0.1-1.2-0.3c-0.2-0.3-0.3-0.7-0.3-1.2v-5.2c0-0.5,0.1-0.9,0.3-1.2
		c0.3-0.3,0.7-0.4,1.2-0.4h4.3v-14.6h-4.3c-0.5,0-1-0.1-1.2-0.3c-0.2-0.3-0.3-0.7-0.3-1.2v-5.2c0-0.5,0.1-0.9,0.3-1.2
		c0.3-0.3,0.7-0.4,1.2-0.4h18.5c0.5,0,0.9,0.1,1.2,0.4c0.3,0.2,0.4,0.6,0.4,1.2v5.2c0,0.5-0.1,1-0.4,1.2c-0.2,0.2-0.6,0.3-1.2,0.3
		h-4.2v14.6h4.2c0.5,0,0.9,0.1,1.2,0.4c0.3,0.2,0.4,0.6,0.4,1.2v5.2c0,0.5-0.1,1-0.4,1.2c-0.2,0.2-0.6,0.3-1.2,0.3H487.6z"/>
</g>
</svg>
