<?xml version="1.0" encoding="UTF-8"?>
<svg id="_레이어_1" data-name=" 레이어 1" xmlns="http://www.w3.org/2000/svg" viewBox="0 0 109.38 109.38">
  <defs>
    <style>
      .cls-1 {
        fill: #fff;
      }
    </style>
  </defs>
  <path class="cls-1" d="M104.04,34.79c-.73.92-1.73,2.18-2.52,3.31,1.84,5.19,2.86,10.77,2.86,16.58,0,27.4-22.29,49.69-49.69,49.69S5,82.09,5,54.69,27.29,5,54.69,5c6.98,0,13.63,1.45,19.66,4.07.63-1.11,1.4-2.2,2.35-3.24.27-.29.56-.55.84-.82-6.96-3.21-14.69-5.01-22.86-5.01C24.49,0,0,24.49,0,54.69s24.49,54.69,54.69,54.69,54.69-24.49,54.69-54.69c0-7.53-1.52-14.71-4.28-21.24-.35.45-.71.9-1.06,1.34Z"/>
  <path class="cls-1" d="M68.24,71.24l-27-.51h-.05c-1.36,0-2.47,1.09-2.5,2.45-.03,1.38,1.07,2.52,2.45,2.55l27,.51h.05c1.36,0,2.47-1.09,2.5-2.45.03-1.38-1.07-2.52-2.45-2.55Z"/>
  <path class="cls-1" d="M41.78,52.19v-9.28c0-2.49-2.01-4.5-4.5-4.5s-4.5,2.01-4.5,4.5v9.28c0,2.49,2.01,4.5,4.5,4.5s4.5-2.01,4.5-4.5Z"/>
  <path class="cls-1" d="M72.1,38.41c-2.49,0-4.5,2.01-4.5,4.5v9.28c0,2.49,2.01,4.5,4.5,4.5s4.5-2.01,4.5-4.5v-9.28c0-2.49-2.01-4.5-4.5-4.5Z"/>
  <g>
    <path class="cls-1" d="M93.37,1.16c-2.65,0-4.64.66-6.13,1.52-1.01.58-1.8,1.26-2.38,1.89-.5.55-.92,1.13-1.28,1.72-2.2,3.64-1.94,7.85-1.9,8.38.13,1.57,1.42,2.74,2.99,2.74.08,0,.15,0,.23,0,1.64-.13,2.88-1.57,2.76-3.21-.06-.79.04-2.8.86-4.43.21-.42.45-.81.77-1.15.89-.96,2.2-1.43,3.97-1.45.04,0,.07,0,.11,0,6.4,0,7.36,4.55,7.36,7.27,0,.14-.03.29-.07.45-.27,1.18-1.5,2.89-2.82,4.59-.32.41-.65.83-.97,1.23-3.1,3.89-6.6,8.3-6.6,13.63,0,1.66,1.34,3,3,3s3-1.34,3-3c0-3.11,2.48-6.36,4.99-9.51.1-.13.21-.26.31-.39,1.07-1.34,2.11-2.65,2.97-3.97,1.29-1.96,2.19-3.93,2.19-6.04,0-9.17-6.71-13.27-13.36-13.27Z"/>
    <path class="cls-1" d="M93.47,41.75c-1.44,0-2.68.87-3.21,2.12-.18.42-.29.89-.29,1.38,0,1.93,1.57,3.5,3.5,3.5s3.5-1.57,3.5-3.5c0-.54-.13-1.05-.35-1.51-.56-1.18-1.76-1.99-3.15-1.99Z"/>
  </g>
</svg>