<?xml version="1.0" encoding="UTF-8"?>
<svg id="_레이어_1" data-name="레이어 1" xmlns="http://www.w3.org/2000/svg" viewBox="0 0 109.39 109.39">
  <defs>
    <style>
      .cls-1 {
        fill: #fff;
      }

      .cls-2 {
        stroke-width: 5px;
      }

      .cls-2, .cls-3 {
        fill: none;
        stroke: #fff;
        stroke-linecap: round;
        stroke-linejoin: round;
      }

      .cls-3 {
        stroke-width: 4px;
      }
    </style>
  </defs>
  <path class="cls-1" d="M54.69,5c27.4,0,49.69,22.29,49.69,49.69s-22.29,49.69-49.69,49.69S5,82.09,5,54.69,27.29,5,54.69,5M54.69,0C24.49,0,0,24.49,0,54.69s24.49,54.69,54.69,54.69,54.69-24.49,54.69-54.69S84.9,0,54.69,0h0Z"/>
  <g>
    <path class="cls-2" d="M32.36,62.11s7.24-5.43,12.31-12.96-.8-12.56-5.33-12.56-6.98,3.97-6.98,3.97h.1s-2.46-3.97-6.98-3.97-10.4,5.02-5.33,12.56,12.31,12.96,12.31,12.96h-.1Z"/>
    <path class="cls-2" d="M76.92,61.17s7.24-5.43,12.31-12.96c5.08-7.54-.8-12.56-5.33-12.56s-6.98,3.97-6.98,3.97h.1s-2.46-3.97-6.98-3.97-10.4,5.02-5.33,12.56,12.31,12.96,12.31,12.96h-.1Z"/>
  </g>
  <path class="cls-3" d="M36.1,76.07s3.18,9.51,18.69,9.51,18.49-10.01,18.49-10.01"/>
</svg>