<?xml version="1.0" encoding="UTF-8"?>
<svg id="_레이어_1" data-name=" 레이어 1" xmlns="http://www.w3.org/2000/svg" viewBox="0 0 109.38 109.38">
  <defs>
    <style>
      .cls-1 {
        fill: #fff;
      }

      .cls-2 {
        fill: none;
        stroke: #fff;
        stroke-linecap: round;
        stroke-linejoin: round;
        stroke-width: 5px;
      }
    </style>
  </defs>
  <path class="cls-1" d="M54.69,5c27.4,0,49.69,22.29,49.69,49.69s-22.29,49.69-49.69,49.69S5,82.09,5,54.69,27.29,5,54.69,5M54.69,0C24.49,0,0,24.49,0,54.69s24.49,54.69,54.69,54.69,54.69-24.49,54.69-54.69S84.9,0,54.69,0h0Z"/>
  <path class="cls-2" d="M36.19,70.22s6.78,8.15,17.68,8.15,19.32-7.63,19.32-7.63"/>
  <g>
    <rect class="cls-1" x="32.78" y="36.41" width="9" height="18.28" rx="4.5" ry="4.5"/>
    <rect class="cls-1" x="67.6" y="36.41" width="9" height="18.28" rx="4.5" ry="4.5"/>
  </g>
</svg>