<?xml version="1.0" encoding="UTF-8"?>
<svg id="_레이어_1" data-name="레이어 1" xmlns="http://www.w3.org/2000/svg" viewBox="0 0 109.39 109.39">
  <defs>
    <style>
      .cls-1 {
        fill: #fff;
      }

      .cls-2 {
        fill: none;
        stroke: #fff;
        stroke-linecap: round;
        stroke-linejoin: round;
        stroke-width: 5px;
      }
    </style>
  </defs>
  <path class="cls-2" d="M73.28,80.88s-3.18-12.31-18.69-12.31-18.49,12.96-18.49,12.96"/>
  <path class="cls-1" d="M54.69,5c27.4,0,49.69,22.29,49.69,49.69s-22.29,49.69-49.69,49.69S5,82.09,5,54.69,27.29,5,54.69,5M54.69,0C24.49,0,0,24.49,0,54.69s24.49,54.69,54.69,54.69,54.69-24.49,54.69-54.69S84.9,0,54.69,0h0Z"/>
  <g>
    <line class="cls-2" x1="25" y1="35.96" x2="40.27" y2="51.23"/>
    <line class="cls-2" x1="39.83" y1="35.96" x2="24.56" y2="51.23"/>
    <line class="cls-2" x1="69.56" y1="35.96" x2="84.82" y2="51.23"/>
    <line class="cls-2" x1="84.38" y1="35.96" x2="69.12" y2="51.23"/>
  </g>
</svg>