<?xml version="1.0" encoding="UTF-8"?>
<svg id="_레이어_2" data-name="레이어 2" xmlns="http://www.w3.org/2000/svg" viewBox="0 0 302 241.06">
  <defs>
    <style>
      .cls-1 {
        fill: #ec9153;
      }

      .cls-2 {
        fill: #1ea3e3;
      }

      .cls-3 {
        fill: #fff;
      }

      .cls-4 {
        fill: #e89013;
      }

      .cls-5 {
        fill: #bcbcbc;
      }

      .cls-6 {
        fill: #f5da9d;
      }

      .cls-7 {
        fill: #632f0b;
      }

      .cls-8 {
        fill: #6c3707;
      }

      .cls-9 {
        fill: #e6f3ff;
      }

      .cls-10 {
        fill: #da641a;
      }
    </style>
  </defs>
  <g>
    <path class="cls-4" d="M200.5,186.43s-10.66,24.23,10.98,29.07c0,0-12.27,4.75-7.11,12.92,5.17,8.17,33.27-.65,32.95-10.66s-10.98-6.14-10.34-24.55"/>
    <path class="cls-8" d="M212.79,233.34c-4.23,0-8.01-1.08-9.86-4-1.55-2.44-1.93-4.89-1.14-7.27.9-2.72,3.2-4.77,5.26-6.14-4.12-1.67-7.11-4.31-8.92-7.89-4.76-9.42.58-21.78.81-22.3.38-.87,1.4-1.26,2.26-.88.87.38,1.26,1.39.88,2.26-.08.19-4.9,11.44-.88,19.38,1.87,3.7,5.46,6.16,10.67,7.33.74.16,1.28.79,1.34,1.55s-.39,1.46-1.09,1.73c-1.62.63-6.05,2.95-7.06,6.05-.45,1.38-.2,2.8.79,4.36,1.8,2.84,8.6,3.22,16.16.9,8.01-2.46,13.74-6.91,13.62-10.58-.11-3.45-1.6-4.81-3.67-6.69-3.15-2.87-7.07-6.45-6.67-17.97.03-.95.84-1.69,1.77-1.65.95.03,1.69.83,1.65,1.77-.35,9.94,2.65,12.67,5.55,15.32,2.28,2.07,4.63,4.22,4.79,9.12.13,4.13-3.99,10.27-16.04,13.97-3.18.98-6.84,1.66-10.21,1.66Z"/>
  </g>
  <g>
    <path class="cls-4" d="M109.41,120.54s-20.03,3.55-25.52-8.4c0,0,7.33-10.98,2.48-17.12-1.47-1.86-2.9-1.79-4.18-1.57-2.94.49-5.09,4.16-5.09,4.16,0,0,1.62-14.86-4.85-15.18s-5.81,10.01-5.81,10.01c0,0-2.87-7.75-6.46-7.66-1.08.03-3.27.63-3.79,2.69-.97,3.86,2.17,10.13,2.17,10.13.5.53-1.91-1.87-4.44-2.95s-5.87.49-5.73,4.08c.21,5.44,4.32,12.22,12.62,18.17,0,0,5.49,34.72,55.38,29.47l-6.78-25.84Z"/>
    <path class="cls-8" d="M106.55,148.62c-12.94,0-27.68-2.95-38-13.83-6.69-7.06-8.78-14.56-9.29-16.89-7.89-5.82-12.54-12.75-12.78-19.1-.08-2.17.81-4.07,2.44-5.2,1.63-1.12,3.8-1.33,5.67-.53.1.04.2.08.29.13-.53-2-.84-4.26-.36-6.15.67-2.66,3.27-3.93,5.41-3.99,2.2-.06,4.03,1.61,5.4,3.53.41-1.49,1.09-2.97,2.19-4.08,1.26-1.28,2.92-1.9,4.82-1.81,1.54.08,2.91.76,3.96,1.99,2.11,2.47,2.64,6.88,2.71,10.31.84-.59,1.81-1.07,2.9-1.26,1.08-.18,3.6-.6,5.81,2.2,4.75,6.01-.14,15.37-1.86,18.27,5.42,9.63,23.07,6.66,23.25,6.62.88-.16,1.73.39,1.96,1.25l6.78,25.84c.13.48.04,1-.25,1.41-.28.41-.73.68-1.23.73-3.07.32-6.38.53-9.82.53ZM52.23,96.02c-.49,0-.96.14-1.35.41-.67.46-1,1.24-.96,2.24.2,5.34,4.65,11.64,11.9,16.84.37.27.62.67.69,1.13.01.08,1.43,8.38,8.66,15.93,9.26,9.66,24.05,13.9,42.85,12.3l-5.88-22.41c-1.99.23-5.62.5-9.61.08-8.08-.86-13.68-4.2-16.2-9.67-.25-.54-.2-1.17.13-1.67,1.84-2.77,5.89-10.89,2.56-15.1-.91-1.15-1.56-1.11-2.55-.95-1.74.29-3.4,2.51-3.89,3.34-.41.69-1.25,1.01-2.02.76-.77-.25-1.25-1.01-1.17-1.81.39-3.6.27-10.18-1.71-12.5-.44-.51-.91-.76-1.52-.79-.93-.05-1.62.2-2.2.79-1.75,1.76-1.9,5.95-1.82,7.41.05.85-.53,1.61-1.36,1.78-.83.17-1.67-.28-1.96-1.08-1.15-3.1-3.39-6.54-4.78-6.54,0,0-.02,0-.02,0-.02,0-1.85.11-2.17,1.39-.65,2.57,1.14,7.09,1.97,8.8.59.85.25,1.75-.16,2.17-.12.12-1.17,1.14-2.52-.02-1.46-1.26-2.78-2.14-3.9-2.62-.33-.14-.68-.21-1.03-.21Z"/>
  </g>
  <g>
    <path class="cls-4" d="M138.48,186.43l-5.17,24.55s-14.54-6.78-17.12,3.88,28.75,20.35,35.85,12.27c7.11-8.08,10.01-40.7,10.01-40.7"/>
    <path class="cls-8" d="M142.54,231.82c-6.07,0-13.24-1.85-18.91-4.8-6.86-3.57-10.18-8.15-9.1-12.57.73-3,2.34-5.12,4.79-6.29,4.21-2.02,9.8-.56,12.74.47l4.75-22.55c.2-.93,1.1-1.52,2.03-1.33.93.2,1.52,1.11,1.33,2.03l-5.17,24.55c-.11.51-.44.95-.91,1.18-.47.23-1.02.24-1.49.02-2.05-.95-8.16-3.03-11.79-1.28-1.5.72-2.46,2.03-2.94,4.01-.66,2.72,2.09,5.98,7.35,8.72,9.46,4.92,22.11,5.92,25.54,2.02,5.52-6.28,8.8-30.8,9.59-39.72.08-.94.92-1.63,1.86-1.56.94.08,1.64.92,1.56,1.86,0,.08-.75,8.33-2.36,17.47-2.2,12.48-4.91,20.62-8.07,24.21-2.19,2.48-6.17,3.56-10.79,3.56Z"/>
  </g>
  <g>
    <path class="cls-4" d="M102.06,98.73s-32.39-40.89,14.05-65.89c41.1-22.13,69.45,0,69.45,0,0,0,25.92-16.88,60.81-3.31,34.88,13.57,51.6,41.51,24.23,68.96l.73,64.76s-.48,27.13-39.97,29.31-118.95-2.66-118.95-2.66c0,0-15.75,2.66-13.08-31.74s2.75-59.43,2.75-59.43Z"/>
    <path class="cls-8" d="M206.46,194.84c-39.63,0-90.78-3.02-94.02-3.22-.98.1-4.76.24-8.33-3.02-5.5-5.03-7.7-15.31-6.51-30.57,2.41-31.08,2.7-54.77,2.74-58.73-2.33-3.12-14.04-19.97-10.24-38.41,2.47-11.95,10.94-21.9,25.2-29.57,11.98-6.45,30.6-13.15,51.33-8.46,10,2.26,16.63,6.29,19.01,7.92,5.23-3.02,29.49-15.25,61.35-2.86,21.23,8.26,35.2,21.45,38.31,36.19,2.47,11.72-2.01,23.84-12.98,35.06l.72,64.05c0,.35-.19,7.45-5.5,14.86-4.83,6.74-15.02,15.02-36.09,16.19-7.21.4-15.78.56-24.97.56ZM112.41,188.19s.06,0,.09,0c.79.05,79.81,4.81,118.75,2.66,37.32-2.06,38.33-26.59,38.35-27.63l-.73-64.71c0-.46.18-.9.5-1.23,10.48-10.51,14.82-21.73,12.56-32.45-2.87-13.59-16.06-25.88-36.19-33.71-33.6-13.07-59,2.99-59.25,3.15-.61.4-1.41.36-1.99-.09-.07-.05-7.04-5.39-18.8-8.01-10.83-2.42-28.09-2.96-48.77,8.17-13.31,7.16-21.2,16.32-23.46,27.22-3.81,18.41,9.8,35.92,9.94,36.09.24.3.37.68.37,1.07,0,.25-.11,25.49-2.75,59.56-1.36,17.51,2.15,24.73,5.33,27.7,2.8,2.61,5.65,2.23,5.77,2.21.09-.01.19-.02.28-.02Z"/>
  </g>
  <g>
    <path class="cls-4" d="M259.93,121.18s37.15,3.55,37.47,38.76c0,0,12.52,26.49-14.54,23.9-26.92-2.57-7.75-24.55-7.75-24.55,0,0,2.91-11.08-15.18-12.64"/>
    <path class="cls-8" d="M286.37,185.74c-1.16,0-2.38-.06-3.67-.18-8.28-.79-13.4-3.5-15.21-8.04-2.97-7.46,4.38-16.98,6.02-18.98.12-.81.23-2.96-1.27-5.07-2.01-2.81-6.32-4.57-12.46-5.11-.94-.08-1.64-.91-1.56-1.86.08-.94.91-1.64,1.86-1.56,7.32.63,12.36,2.85,15,6.6,2.77,3.93,1.74,8.02,1.69,8.19-.07.26-.19.49-.37.69-2.3,2.64-7.8,10.63-5.73,15.82,1.3,3.25,5.45,5.23,12.35,5.89,6.97.66,11.64-.61,13.88-3.8,4.29-6.1-1.01-17.54-1.06-17.66-.11-.22-.16-.47-.16-.72-.13-13.9-6.15-24.35-17.89-31.05-8.9-5.08-17.94-6.01-18.03-6.02-.94-.09-1.63-.93-1.54-1.87.09-.94.93-1.64,1.87-1.54.39.04,9.76.99,19.3,6.39,8.85,5.02,19.41,14.93,19.72,33.69.97,2.19,5.61,13.61.61,20.74-2.54,3.62-7.02,5.44-13.35,5.44Z"/>
  </g>
  <path class="cls-6" d="M93.9,73.7s.4-8.73,6.3-16.92c5.12-7.11,14.75-13.68,27.13-15.48,26.65-3.88,45.54,11.56,45.54,11.56,0,0,24.99-15.18,51.68-10.81,10.77,1.76,21.61,10.13,27.17,18.2,6.5,9.44,3.96,27.98-7.63,42.35v65.57s2.34,21.67-15.59,22.64c-9.95.54-37.55,1.51-66.81-.32-22.84-1.42-46.32-1.04-51.41-2.5-4.24-1.21-9.12-2.73-9.57-22.05-.11-4.73.89-9.95,1.25-17.16,1.85-36.65,1.78-51.01,1.78-51.01,0,0-9.98-10.68-9.86-24.09Z"/>
  <ellipse class="cls-1" cx="130.16" cy="116.25" rx="12.27" ry="9.51"/>
  <ellipse class="cls-1" cx="217.21" cy="118.08" rx="12.27" ry="9.51"/>
  <path class="cls-7" d="M153.98,117.47c1.94-11.38,27.59-2.96,31,.22,6.06,5.65,6.61,13.64-3.62,16.74-15.99,4.85-29.31-5.58-27.37-16.96Z"/>
  <path class="cls-10" d="M160.94,125.74c.45-2.22,3.27-4.48,8.77-2.65s10.13,3.22,8.66,7.08c-.48,1.26-2.99,2.22-5.2,2.58-2.44.4-5.51-.45-7.72-1.29-3.05-1.15-4.71-4.79-4.52-5.72Z"/>
  <g>
    <g>
      <path class="cls-3" d="M51.67,55.51s4.5-9.78,6.92-8.56,36.89,23.91,36.89,23.91c0,0,2.44,1.01,1.11,3.23s-4.8,7.41-4.8,7.41l-40.11-25.99Z"/>
      <path class="cls-8" d="M91.78,83.22c-.32,0-.64-.09-.93-.28l-40.11-25.99c-.72-.46-.98-1.38-.63-2.16.91-1.97,4.09-8.46,7.03-9.48.97-.34,1.74-.12,2.22.12,2.41,1.22,32.92,21.28,36.95,23.93.51.25,1.74.97,2.21,2.39.24.72.35,1.86-.46,3.23-1.34,2.24-4.71,7.27-4.85,7.49-.33.49-.87.76-1.43.76ZM53.87,54.89l37.42,24.25c1.12-1.69,2.95-4.47,3.82-5.93.14-.24.16-.37.15-.39-.02-.08-.26-.29-.47-.39-.08-.04-.19-.09-.26-.14-13.29-8.75-33.4-21.89-36.44-23.65-.91.59-2.71,3.28-4.22,6.25Z"/>
    </g>
    <g>
      <polygon class="cls-3" points="91.78 81.5 74.35 90.57 94.75 96.69 91.78 81.5"/>
      <path class="cls-8" d="M94.75,98.41c-.17,0-.33-.02-.49-.07l-20.39-6.12c-.67-.2-1.15-.79-1.21-1.48-.07-.7.3-1.36.92-1.68l17.43-9.07c.48-.25,1.05-.26,1.54-.02.49.23.84.69.94,1.22l2.97,15.19c.12.59-.09,1.2-.53,1.6-.32.29-.73.44-1.15.44ZM78.9,90.14l13.62,4.09-1.98-10.15-11.64,6.06Z"/>
    </g>
    <g>
      <polyline class="cls-3" points="74.35 90.57 32.63 63.53 51.67 55.51 91.78 81.5 74.35 90.57"/>
      <path class="cls-8" d="M74.35,92.28c-.33,0-.65-.09-.93-.28l-41.72-27.04c-.53-.35-.83-.96-.78-1.59.06-.63.46-1.18,1.04-1.43l19.04-8.02c.52-.22,1.12-.17,1.6.14l40.11,25.99c.51.33.81.91.78,1.52s-.38,1.16-.92,1.44l-17.43,9.07c-.25.13-.52.19-.79.19ZM36.29,63.86l38.16,24.73,13.92-7.24-36.88-23.9-15.21,6.41Z"/>
    </g>
    <g>
      <rect class="cls-9" x="13.18" y="72.48" width="49.72" height="56.85" transform="translate(60.99 -4.46) rotate(32.94)"/>
      <path class="cls-8" d="M43.44,139.99c-.33,0-.65-.09-.93-.28L.78,112.68c-.38-.25-.65-.64-.75-1.08s0-.91.24-1.29l30.92-47.71c.52-.79,1.58-1.02,2.37-.51l41.72,27.04c.38.25.65.64.75,1.08s0,.91-.24,1.29l-30.92,47.71c-.25.38-.64.65-1.08.75-.12.03-.24.04-.36.04ZM4.09,110.73l38.84,25.17,29.05-44.83-38.84-25.17L4.09,110.73Z"/>
    </g>
    <g>
      <polygon class="cls-9" points="63.45 144.99 43.61 138.39 74.72 90.38 94.56 96.98 63.45 144.99"/>
      <path class="cls-8" d="M63.45,146.71c-.18,0-.36-.03-.54-.09l-19.84-6.6c-.5-.17-.9-.56-1.08-1.06-.18-.5-.11-1.06.18-1.5l31.11-48.01c.43-.66,1.24-.94,1.98-.7l19.84,6.6c.5.17.9.56,1.08,1.06.18.5.11,1.06-.18,1.5l-31.11,48.01c-.32.5-.87.78-1.44.78ZM46.26,137.46l16.47,5.48,29.19-45.04-16.47-5.48-29.19,45.04Z"/>
    </g>
    <g>
      <polygon class="cls-2" points="43.47 111.45 37.98 108.03 33.45 112.64 32.71 106.22 26.28 105.55 30.83 100.96 27.35 95.52 33.77 96.22 35.85 90.1 39.31 95.56 45.39 93.38 43.28 99.48 48.78 102.87 42.69 105.03 43.47 111.45"/>
      <path class="cls-2" d="M33.45,117.79c-.56,0-1.12-.09-1.67-.28-1.87-.64-3.21-2.31-3.44-4.27l-.27-2.32-2.32-.24c-1.97-.21-3.65-1.52-4.32-3.39-.67-1.87-.2-3.95,1.19-5.36l1.65-1.66-1.26-1.97c-1.07-1.67-1.08-3.8-.04-5.49,1.04-1.68,2.96-2.62,4.93-2.41l2.32.25.75-2.21c.64-1.88,2.3-3.22,4.27-3.45,1.97-.23,3.9.68,4.96,2.36l1.25,1.97,2.2-.79c1.86-.67,3.95-.21,5.36,1.18s1.9,3.47,1.25,5.34l-.76,2.21,1.99,1.23c1.69,1.04,2.63,2.96,2.42,4.93s-1.53,3.65-3.4,4.31l-2.2.78.28,2.32c.24,1.97-.67,3.9-2.34,4.96-1.67,1.06-3.81,1.07-5.49.03l-1.98-1.24-1.64,1.67c-.98,1-2.31,1.54-3.67,1.54ZM35.84,102.14c.34.26.64.56.91.9.41-.1.84-.14,1.26-.15.18-.39.4-.75.67-1.08-.19-.38-.34-.78-.43-1.2-.42-.09-.82-.23-1.21-.41-.33.27-.69.5-1.07.68,0,.43-.04.85-.14,1.27Z"/>
    </g>
  </g>
  <path class="cls-7" d="M149.54,102.86c-2.52,0-5.84-.36-7.72-2.01-1-.88-1.52-2.04-1.52-3.37,0-2.83,1.57-4.69,3.43-5.84-1.86-1.06-3.42-2.92-3.42-6.03,0-1.59.66-2.95,1.91-3.91,2.47-1.9,6.82-1.91,9.82-1.12.73.19,1.17.95.98,1.68-.19.73-.95,1.17-1.68.98-2.42-.64-5.87-.58-7.45.64-.57.44-.84.99-.84,1.73,0,4.29,4.72,4.48,5.26,4.49.72.01,1.32.58,1.35,1.31.04.72-.5,1.35-1.21,1.43-.22.03-5.4.69-5.4,4.64,0,.55.18.95.59,1.31,1.66,1.46,6.31,1.48,8.84,1.16.75-.1,1.44.43,1.54,1.19.1.75-.43,1.44-1.18,1.54-.32.04-1.63.2-3.28.2Z"/>
  <path class="cls-7" d="M197.63,102.86c-2.52,0-5.84-.36-7.72-2.01-1-.88-1.52-2.04-1.52-3.37,0-2.83,1.57-4.69,3.43-5.84-1.86-1.06-3.42-2.92-3.42-6.03,0-1.59.66-2.95,1.91-3.91,2.47-1.9,6.82-1.91,9.82-1.12.73.19,1.17.95.98,1.68-.19.73-.94,1.17-1.68.98-2.42-.64-5.87-.58-7.45.64-.57.44-.84.99-.84,1.73,0,4.29,4.72,4.48,5.26,4.49.72.01,1.32.58,1.35,1.31.04.72-.5,1.35-1.21,1.43-.22.03-5.4.69-5.4,4.64,0,.55.18.95.59,1.31,1.66,1.46,6.3,1.48,8.84,1.16.75-.1,1.44.43,1.54,1.19.1.75-.43,1.44-1.19,1.54-.32.04-1.63.2-3.28.2Z"/>
  <path class="cls-5" d="M287.33,41.04h-25.4c-1.09,0-2.07-.64-2.51-1.64s-.25-2.16.48-2.96l21.21-23.24h-20.49c-1.52,0-2.75-1.23-2.75-2.75s1.23-2.75,2.75-2.75h26.71c1.09,0,2.07.64,2.51,1.64s.25,2.16-.48,2.96l-21.21,23.24h19.18c1.52,0,2.75,1.23,2.75,2.75s-1.23,2.75-2.75,2.75Z"/>
  <path class="cls-5" d="M295.99,78.46h-15.56c-1.09,0-2.07-.64-2.51-1.64s-.25-2.16.48-2.96l11.37-12.46h-10.15c-1.52,0-2.75-1.23-2.75-2.75s1.23-2.75,2.75-2.75h16.37c1.09,0,2.07.64,2.51,1.64s.25,2.16-.48,2.96l-11.37,12.46h9.34c1.52,0,2.75,1.23,2.75,2.75s-1.23,2.75-2.75,2.75Z"/>
  <path class="cls-5" d="M251.17,57.6h-15.56c-1.09,0-2.07-.64-2.51-1.64s-.25-2.16.48-2.96l11.37-12.46h-10.15c-1.52,0-2.75-1.23-2.75-2.75s1.23-2.75,2.75-2.75h16.37c1.09,0,2.07.64,2.51,1.64s.25,2.16-.48,2.96l-11.37,12.46h9.34c1.52,0,2.75,1.23,2.75,2.75s-1.23,2.75-2.75,2.75Z"/>
</svg>