<?xml version="1.0" encoding="UTF-8"?>
<svg id="_레이어_5" data-name="레이어 5" xmlns="http://www.w3.org/2000/svg" viewBox="0 0 302 241.06">
  <defs>
    <style>
      .cls-1 {
        fill: #ad3f3a;
      }

      .cls-2 {
        fill: #38578b;
      }

      .cls-3 {
        fill: #ec9153;
      }

      .cls-4 {
        fill: #eba922;
      }

      .cls-5 {
        fill: #e89013;
      }

      .cls-6 {
        fill: #f5da9d;
      }

      .cls-7 {
        fill: #b84723;
      }

      .cls-8 {
        fill: #632f0b;
      }

      .cls-9 {
        fill: #6c3707;
      }

      .cls-10 {
        fill: #5b7f30;
      }

      .cls-11 {
        fill: #da641a;
      }
    </style>
  </defs>
  <g>
    <path class="cls-5" d="M178.29,182.24s-11.13,25.29,11.47,30.35c0,0-12.81,4.96-7.42,13.49,5.4,8.53,34.73-.67,34.4-11.13-.34-10.45-11.47-6.41-10.79-25.63"/>
    <path class="cls-9" d="M191.13,231.22c-4.42,0-8.37-1.13-10.3-4.18-1.61-2.55-2.02-5.11-1.19-7.59.94-2.84,3.34-4.98,5.5-6.41-4.3-1.74-7.43-4.5-9.32-8.24-4.97-9.83.6-22.73.84-23.28.4-.91,1.46-1.32,2.36-.92.9.4,1.32,1.45.92,2.36h0c-.05.12-5.13,11.92-.92,20.23,1.96,3.86,5.7,6.43,11.13,7.65.77.17,1.34.83,1.4,1.61.06.79-.4,1.52-1.14,1.8-1.69.66-6.31,3.08-7.37,6.31-.47,1.44-.2,2.93.82,4.55,1.88,2.97,8.97,3.36,16.87.94,8.36-2.57,14.34-7.22,14.22-11.05-.12-3.6-1.67-5.02-3.83-6.99-3.29-3-7.38-6.73-6.96-18.76.03-.99.88-1.76,1.85-1.73.99.03,1.76.86,1.73,1.85-.36,10.38,2.77,13.23,5.8,15.99,2.38,2.16,4.83,4.4,5,9.52.14,4.31-4.16,10.72-16.75,14.59-3.32,1.02-7.14,1.74-10.66,1.74Z"/>
  </g>
  <g>
    <path class="cls-5" d="M83.2,113.45s-20.91,3.71-26.64-8.77c0,0,7.65-11.47,2.59-17.87-1.53-1.94-3.03-1.87-4.36-1.64-3.07.52-5.31,4.34-5.31,4.34,0,0,1.69-15.51-5.06-15.85-6.74-.34-6.07,10.45-6.07,10.45,0,0-2.99-8.09-6.74-7.99-1.13.03-3.42.66-3.96,2.81-1.01,4.03,2.27,10.58,2.27,10.58.52.56-1.99-1.96-4.64-3.08-2.73-1.16-6.13.51-5.98,4.26.22,5.68,4.51,12.75,13.17,18.97,0,0,5.73,36.25,57.81,30.77l-7.08-26.98Z"/>
    <path class="cls-9" d="M80.21,142.76c-13.51,0-28.9-3.08-39.67-14.43-6.99-7.37-9.16-15.2-9.7-17.64-8.24-6.08-13.09-13.32-13.34-19.94-.09-2.27.84-4.25,2.55-5.42,1.7-1.17,3.97-1.38,5.92-.55.1.04.2.09.31.14-.55-2.09-.87-4.44-.37-6.42.7-2.77,3.42-4.1,5.65-4.16,2.3-.06,4.2,1.68,5.63,3.69.43-1.55,1.14-3.1,2.29-4.26,1.32-1.33,3.05-1.98,5.03-1.89,1.61.08,3.04.8,4.13,2.07,2.2,2.58,2.76,7.18,2.82,10.77.88-.62,1.9-1.12,3.03-1.31,1.12-.19,3.75-.63,6.07,2.3,4.96,6.28-.15,16.05-1.94,19.07,5.66,10.06,24.08,6.95,24.27,6.91.91-.16,1.81.41,2.04,1.31l7.08,26.98c.13.51.04,1.04-.26,1.47-.3.43-.77.71-1.29.76-3.2.34-6.66.55-10.25.55ZM23.5,87.85c-.51,0-1,.14-1.41.43-.7.48-1.05,1.29-1.01,2.34.21,5.58,4.86,12.15,12.43,17.58.39.28.65.7.72,1.18.01.08,1.49,8.75,9.04,16.63,9.66,10.09,25.1,14.51,44.73,12.84l-6.14-23.4c-2.07.24-5.87.53-10.03.08-8.44-.9-14.29-4.39-16.91-10.1-.26-.57-.21-1.22.14-1.74,1.92-2.89,6.15-11.37,2.68-15.77-.95-1.21-1.63-1.16-2.66-.99-1.82.31-3.55,2.62-4.06,3.48-.43.73-1.31,1.05-2.11.79-.8-.27-1.31-1.05-1.22-1.89.41-3.76.28-10.63-1.79-13.05-.46-.54-.94-.79-1.58-.82-.96-.05-1.69.21-2.3.82-1.82,1.84-1.99,6.21-1.9,7.73.05.89-.55,1.68-1.42,1.86-.87.18-1.74-.3-2.05-1.13-1.21-3.26-3.54-6.86-5.01-6.82-.02,0-1.93.11-2.27,1.45-.68,2.69,1.19,7.4,2.06,9.19.61.89.26,1.82-.17,2.27-.12.13-1.22,1.19-2.63-.02-1.53-1.31-2.9-2.23-4.07-2.73-.35-.15-.71-.22-1.07-.22Z"/>
  </g>
  <g>
    <path class="cls-5" d="M113.55,182.24l-5.4,25.63s-15.17-7.08-17.87,4.05c-2.7,11.13,30.01,21.24,37.43,12.81,7.42-8.43,10.45-42.49,10.45-42.49"/>
    <path class="cls-9" d="M117.79,229.63c-6.34,0-13.82-1.93-19.75-5.01-7.16-3.73-10.62-8.51-9.5-13.12.76-3.13,2.44-5.34,5-6.57,4.39-2.11,10.23-.59,13.3.5l4.96-23.55c.2-.97,1.16-1.59,2.12-1.38.97.2,1.59,1.15,1.38,2.12l-5.4,25.63c-.11.53-.46.99-.95,1.23-.49.24-1.06.25-1.56.02-2.14-.99-8.52-3.17-12.31-1.34-1.56.75-2.56,2.12-3.06,4.18-.69,2.84,2.18,6.24,7.68,9.1,9.87,5.14,23.08,6.18,26.67,2.11,5.77-6.55,9.18-32.15,10.01-41.47.09-.99.96-1.71,1.94-1.63.99.09,1.71.96,1.63,1.94,0,.09-.79,8.7-2.46,18.24-2.3,13.03-5.13,21.53-8.43,25.28-2.28,2.59-6.44,3.72-11.27,3.72Z"/>
  </g>
  <g>
    <path class="cls-5" d="M75.53,90.68s-33.82-42.69,14.67-68.79c42.91-23.1,72.5,0,72.5,0,0,0,27.06-17.62,63.48-3.46,36.42,14.16,53.87,43.33,25.29,72l.76,67.61s-.51,28.33-41.73,30.6c-41.23,2.28-124.18-2.78-124.18-2.78,0,0-16.44,2.78-13.66-33.13,2.78-35.91,2.87-62.05,2.87-62.05Z"/>
    <path class="cls-9" d="M184.52,191.02c-41.38,0-94.77-3.16-98.15-3.36-1.02.11-4.97.25-8.7-3.15-5.75-5.25-8.03-15.99-6.8-31.91,2.51-32.45,2.82-57.18,2.86-61.31-2.43-3.26-14.66-20.85-10.69-40.09,2.58-12.48,11.43-22.87,26.31-30.88,12.5-6.73,31.95-13.73,53.59-8.83,10.44,2.36,17.36,6.57,19.85,8.27,5.46-3.16,30.79-15.92,64.05-2.98,22.17,8.62,36.75,22.39,39.99,37.79,2.58,12.24-2.1,24.88-13.55,36.61l.75,66.87c0,.36-.2,7.78-5.74,15.51-5.04,7.04-15.68,15.68-37.68,16.9-7.53.42-16.48.59-26.07.59ZM86.33,184.07s.07,0,.1,0c.83.05,83.33,5.03,123.97,2.78,38.96-2.15,40.01-27.76,40.04-28.85l-.76-67.56c0-.48.18-.94.52-1.28,10.94-10.97,15.48-22.69,13.11-33.87-2.99-14.19-16.77-27.01-37.79-35.19-35.07-13.64-61.59,3.12-61.86,3.29-.64.41-1.48.38-2.08-.09-.07-.05-7.35-5.63-19.63-8.37-11.31-2.52-29.32-3.09-50.92,8.53-13.89,7.48-22.13,17.04-24.49,28.42-3.98,19.22,10.23,37.5,10.38,37.68.25.32.39.71.39,1.12,0,.26-.12,26.61-2.87,62.18-1.42,18.28,2.24,25.82,5.56,28.92,2.92,2.73,5.9,2.33,6.03,2.31.09-.01.2-.02.29-.02Z"/>
  </g>
  <path class="cls-6" d="M67.01,64.55s.42-9.11,6.58-17.66c5.34-7.42,15.4-14.28,28.33-16.16,27.82-4.05,47.55,12.07,47.55,12.07,0,0,26.09-15.85,53.96-11.29,11.25,1.84,22.56,10.58,28.37,19,6.79,9.86,4.14,29.21-7.97,44.22v68.46s2.44,22.62-16.27,23.63c-10.38.56-39.2,1.58-69.75-.33-23.84-1.49-48.36-1.09-53.67-2.61-4.43-1.27-9.53-2.85-9.99-23.02-.11-4.94.93-10.39,1.31-17.91,1.93-38.27,1.86-53.26,1.86-53.26,0,0-10.42-11.15-10.29-25.15Z"/>
  <circle class="cls-3" cx="104.87" cy="105.52" r="12.81"/>
  <circle class="cls-3" cx="195.75" cy="107.99" r="12.81"/>
  <ellipse class="cls-8" cx="174.12" cy="87.75" rx="6.7" ry="9.2"/>
  <ellipse class="cls-8" cx="126.91" cy="85.98" rx="6.7" ry="9.2"/>
  <path class="cls-8" d="M129.74,110.24s-.68-7.85,4.55-7.84c7.84.02,20.99,3.79,30.6,1.26,9.61-2.53,10.12,19.22-6.58,24.28-16.69,5.06-29.09-7.33-28.58-17.7Z"/>
  <path class="cls-11" d="M139.01,118.34c0-2.95,3.03-6.58,10.54-5.65,7.5.93,13.78,1.52,12.9,6.83-.29,1.74-3.25,3.61-5.99,4.64-3.02,1.13-7.16.84-10.2.34-4.2-.69-7.25-4.92-7.25-6.15Z"/>
  <g>
    <path class="cls-10" d="M56.56,104.68l-27.57,6.2s1.59,8.18,8.03,16.53l24.65-18.25c-1.88-1.13-3.63-2.59-5.11-4.48Z"/>
    <path class="cls-7" d="M71.07,112.42l-16.21,28.58c6.27,2.59,14.01,4.17,23.54,3.93l3.54-32.39s-4.98.82-10.87-.12Z"/>
    <path class="cls-2" d="M61.66,109.16l-24.65,18.25c3.91,5.07,9.62,10.2,17.84,13.6l16.21-28.58c-3.08-.49-6.4-1.46-9.4-3.27Z"/>
  </g>
  <path class="cls-9" d="M76.56,146.75c-21.55,0-33.74-9.35-40.22-17.32-7.23-8.89-9.03-17.84-9.1-18.21-.19-.95.42-1.88,1.37-2.09l27.57-6.2c.67-.15,1.38.1,1.8.64,7.58,9.68,23.51,7.22,23.68,7.2.55-.09,1.12.08,1.52.47s.61.94.55,1.49l-3.54,32.39c-.1.89-.84,1.57-1.74,1.6-.63.02-1.26.02-1.88.02ZM78.39,144.93h0,0ZM31.19,112.22c.85,2.89,3.1,9.06,8.03,15.08,8.63,10.54,21.17,15.87,37.28,15.87.09,0,.19,0,.29,0l3.13-28.61c-1.84.13-4.61.2-7.75-.17-6.95-.83-12.55-3.49-16.28-7.72l-24.69,5.55Z"/>
  <g>
    <path class="cls-4" d="M115.62,149.63c-16.7,0-36.63-1.89-42.59-2.5l3.79-37.13c5.12,2.41,18.08,8.59,30.79,15.39,31.36,16.77,31.11,21.21,31.08,21.42h0s-.1.12-.45.29c-2.47,1.15-8.4,2.53-22.62,2.53h0Z"/>
    <path class="cls-9" d="M78.35,112.71c5.72,2.72,16.07,7.73,26.51,13.25,22.79,12.06,29.41,17.79,31.32,20.01-2.69.85-8.44,1.86-20.56,1.86-15.23,0-33.16-1.58-40.63-2.31l3.35-32.82M75.29,107.32l-4.23,41.41s24.43,2.7,44.56,2.7c10.07,0,19.06-.67,23.38-2.7,12.98-6.07-63.72-41.41-63.72-41.41h0Z"/>
  </g>
  <g>
    <path class="cls-4" d="M108.15,149.91l142.31-40.75,1.67,39.74s-97.45,11.26-143.97,1.02Z"/>
    <path class="cls-9" d="M162.19,156.01c-4.14,0-8.13-.05-11.96-.14-17.45-.43-31.74-1.84-42.46-4.21-.8-.18-1.38-.87-1.41-1.69-.03-.82.51-1.55,1.3-1.78l142.31-40.75c.53-.15,1.1-.05,1.54.27.45.32.72.83.74,1.38l1.67,39.74c.04.94-.65,1.75-1.58,1.85-.24.03-24.77,2.84-54.66,4.36-12.73.65-24.61.97-35.49.97ZM115.94,149.54c19.07,3,46.99,3.67,81.53,1.92,25.35-1.29,46.81-3.51,52.79-4.16l-1.5-35.79-132.82,38.03Z"/>
  </g>
  <g>
    <path class="cls-2" d="M73.09,148.36s-11.94,24.31-9.12,42.52c2.53,16.33,152,20.86,185.1,5.95,3.82-1.72,12.62-5.34,12.34-7.6-3.4-27.34-9.28-38.91-9.28-38.91l-179.03-1.97Z"/>
    <path class="cls-9" d="M165.67,207.68c-3.25,0-6.46-.02-9.6-.07-32.49-.48-75.31-3.69-89.09-11.15-2.9-1.57-4.46-3.31-4.77-5.3-2.88-18.55,8.78-42.57,9.28-43.59.3-.62.92-1,1.63-1l179.04,1.97c.67,0,1.28.38,1.58.98.25.48,6.06,12.16,9.46,39.5.36,2.86-3.44,5.05-12.08,8.87-.48.21-.91.4-1.3.58-15.16,6.83-51.79,9.22-84.14,9.22ZM74.23,150.16c-2.16,4.74-10.87,25.07-8.48,40.44.06.36.46,1.36,2.94,2.7,10.7,5.8,45.84,10.11,87.43,10.72,42.71.63,78.91-2.84,92.22-8.83.39-.18.84-.38,1.32-.59,2.23-.99,8.91-3.94,9.94-5.42-2.78-22.14-7.23-33.82-8.63-37.09l-176.74-1.94Z"/>
  </g>
  <g>
    <path class="cls-5" d="M240.34,114.12s38.78,3.71,39.12,40.47c0,0,13.07,27.65-15.17,24.95-28.11-2.68-8.09-25.63-8.09-25.63,0,0,3.03-11.56-15.85-13.2"/>
    <path class="cls-9" d="M267.94,181.52c-1.21,0-2.49-.06-3.83-.19-8.65-.83-13.99-3.65-15.88-8.4-3.1-7.79,4.57-17.72,6.29-19.81.12-.84.24-3.09-1.33-5.29-2.1-2.93-6.6-4.78-13-5.33-.99-.09-1.72-.95-1.63-1.94.08-.99.95-1.71,1.94-1.63,7.64.66,12.91,2.98,15.66,6.89,2.89,4.1,1.81,8.37,1.77,8.55-.07.27-.2.51-.38.72-2.4,2.76-8.14,11.1-5.98,16.52,1.36,3.4,5.69,5.47,12.89,6.15,7.28.69,12.15-.64,14.49-3.97,4.48-6.37-1.05-18.31-1.11-18.43-.11-.23-.17-.49-.17-.75-.13-14.52-6.42-25.42-18.68-32.42-9.3-5.3-18.73-6.27-18.82-6.28-.98-.1-1.71-.97-1.61-1.96.1-.98.97-1.71,1.95-1.61.41.04,10.19,1.03,20.15,6.67,9.23,5.24,20.27,15.58,20.59,35.18,1.01,2.29,5.86,14.21.64,21.65-2.65,3.77-7.33,5.68-13.94,5.68Z"/>
  </g>
  <g>
    <path class="cls-1" d="M73.09,148.36l.54-11.77s84.87,21.87,174.16,2.12l4.34,11.61s-19.63,6.35-49.93,8.93c-47.5,4.04-115.28,3.34-129.1-10.9Z"/>
    <path class="cls-9" d="M152.01,163.15c-35.35,0-70.32-3.37-80.2-13.54-.35-.35-.53-.84-.5-1.33l.54-11.77c.02-.54.29-1.04.72-1.36.43-.32.99-.43,1.51-.29.84.22,85.51,21.53,173.33,2.11.87-.19,1.75.29,2.07,1.12l4.34,11.61c.17.46.15.97-.07,1.41-.21.44-.6.77-1.06.92-.2.06-20.17,6.45-50.33,9.01-14.81,1.26-32.62,2.1-50.34,2.1ZM74.92,147.63c13.55,12.27,75.19,14.26,127.12,9.84,24.58-2.09,42.25-6.73,47.74-8.31l-3.12-8.37c-45.82,9.89-90.25,8.76-119.59,6.04-26.34-2.44-45.55-6.56-51.74-8l-.4,8.79Z"/>
  </g>
  <g>
    <g>
      <path class="cls-1" d="M123.67,139.51s-15.85-8.6-16.86,2.53c-1.01,11.13-4.89,18.88,16.86,14.16l16.69-.67s9.95,8.77,17.37,5.73c7.42-3.03,6.74-20.91,4.22-22.93-2.53-2.02-17.37-.84-22.26,3.71l-16.02-2.53Z"/>
      <path class="cls-9" d="M154.34,163.68c-6.3,0-12.68-4.78-14.6-6.34l-15.84.64c-9.6,2.07-14.88,1.88-17.63-.64-2.83-2.59-2.29-6.8-1.68-11.67.15-1.22.31-2.49.43-3.8.35-3.8,2.22-5.57,3.74-6.38,5.18-2.77,13.61,1.31,15.48,2.29l14.92,2.36c5.78-4.39,20.44-5.98,23.9-3.21,2.55,2.04,2.75,9.83,2.08,14.46-.87,6.01-3.26,10.1-6.74,11.53-1.32.54-2.69.77-4.06.77ZM140.36,153.73c.44,0,.86.16,1.18.45,2.54,2.23,10.28,7.55,15.5,5.42,1.85-.76,3.32-3.1,4.14-6.59,1.44-6.09.39-12.4-.42-13.33-1.76-1.24-15.52-.38-19.87,3.66-.4.38-.96.54-1.5.46l-16.02-2.53c-.2-.03-.4-.1-.57-.19-2.18-1.18-9.14-4.16-12.36-2.43-.4.21-1.62.87-1.86,3.54-.12,1.37-.29,2.67-.45,3.92-.49,3.89-.92,7.24.54,8.58,1.71,1.57,6.62,1.48,14.6-.25.1-.02.2-.04.31-.04l16.69-.67s.05,0,.07,0Z"/>
    </g>
    <g>
      <path class="cls-4" d="M142.55,148.35s4.05-2.25,9.61-.57"/>
      <path class="cls-9" d="M142.56,150.14c-.63,0-1.25-.34-1.58-.93-.47-.86-.17-1.94.7-2.42.19-.11,4.78-2.6,11-.72.95.29,1.48,1.28,1.2,2.23-.29.95-1.28,1.48-2.23,1.2-4.71-1.42-8.09.35-8.23.43-.27.15-.56.21-.85.21Z"/>
    </g>
    <g>
      <path class="cls-1" d="M124.3,147.95l5.81,4.19s-5.81,17.2,3.29,57.16l-17.87,2.36s-19.32-31.19,8.77-63.71Z"/>
      <path class="cls-9" d="M115.53,213.45c-.61,0-1.19-.32-1.52-.85-.21-.33-5.06-8.28-6.41-20.4-1.24-11.18.41-28.13,15.34-45.42.61-.7,1.65-.83,2.4-.28l5.81,4.19c.64.46.9,1.28.65,2.03-.05.16-5.51,17.36,3.34,56.19.11.49.01,1.01-.28,1.42-.29.41-.74.69-1.24.75l-17.87,2.36c-.08.01-.16.02-.24.02ZM124.6,150.37c-10.52,12.71-15.04,26.59-13.45,41.27.97,9,4.08,15.66,5.36,18.08l14.72-1.94c-7.29-33.15-4.32-50.27-3.17-54.92l-3.45-2.49Z"/>
    </g>
    <g>
      <path class="cls-1" d="M122.99,144.4s-21.93,19.16-21.46,44.83l14.04,5.13,10.63-41.5-3.2-8.46Z"/>
      <path class="cls-9" d="M115.57,196.16c-.21,0-.42-.04-.62-.11l-14.04-5.13c-.7-.25-1.16-.91-1.18-1.65-.48-26.2,21.15-45.41,22.07-46.21.44-.39,1.04-.53,1.61-.39.57.14,1.03.55,1.24,1.1l3.2,8.46c.13.34.15.72.06,1.08l-10.63,41.5c-.13.49-.45.9-.9,1.14-.26.14-.55.21-.83.21ZM103.32,187.98l11.01,4.03,9.99-39.04-2.04-5.39c-5.1,5.18-18.75,20.87-18.96,40.4Z"/>
    </g>
    <g>
      <path class="cls-1" d="M140.7,141.02s-13.49-3.71-16.19,0c-2.7,3.71-3.54,16.52,6.24,16.19,3.27-.11,7.63.89,9.1-1.52,2.93-4.8.84-14.67.84-14.67Z"/>
      <path class="cls-9" d="M135.31,159.11c-.7,0-1.41-.03-2.1-.06-.86-.04-1.67-.08-2.4-.05-3.8.13-6.81-1.51-8.46-4.61-2.56-4.81-1.31-11.64.71-14.42,1.55-2.14,5.08-2.83,10.78-2.12,3.79.47,7.19,1.4,7.33,1.44.65.18,1.14.7,1.28,1.36.23,1.08,2.15,10.72-1.07,15.98-1.29,2.11-3.65,2.49-6.07,2.49ZM131.32,155.41c.68,0,1.38.03,2.06.06,1.96.09,4.39.2,4.95-.71,1.85-3.03,1.33-9.14.82-12.29-5.6-1.39-12.1-1.89-13.18-.39-1.38,1.9-2.2,7.33-.44,10.63,1.01,1.91,2.69,2.8,5.17,2.71.21,0,.42-.01.63-.01Z"/>
    </g>
  </g>
  <g>
    <path class="cls-2" d="M266.08,115.26c-3.71-2.26-8.39-4.2-14.36-5.7,0,0-17.2-2.44-16.05,12.39,1.05,13.63.97,18.19,11.75,18.92,2.48-10.19,10.97-19.23,18.66-25.61Z"/>
    <path class="cls-10" d="M266.08,115.26c-7.69,6.38-16.18,15.42-18.66,25.61.95.06,1.98.1,3.11.11.55,0,.08,1.65-.52,3.95,8.25-.35,20.2-1.62,30.73-5.64-1.61-8.93-4.32-17.73-14.66-24.04Z"/>
    <path class="cls-7" d="M280.74,139.3c-10.53,4.02-22.48,5.29-30.73,5.64-1.14,4.39-2.76,11.17,1.3,13.59,6.19,3.69,34.21,6.03,31.17-9.07-.67-3.32-1.13-6.75-1.74-10.16Z"/>
  </g>
  <path class="cls-9" d="M266.03,163.08c-6.59,0-13.01-1.45-15.64-3.02-5.36-3.2-3.25-11.23-2-16.03.11-.42.23-.88.33-1.3-13.32-.55-13.75-6.19-14.72-19.08l-.12-1.57c-.35-4.55.83-8.14,3.52-10.66,5.23-4.91,14.19-3.7,14.57-3.64.06,0,.13.02.19.04,26.43,6.67,28.89,21.96,31.06,35.45.33,2.02.63,3.93,1.02,5.83.89,4.42-.47,8.04-3.93,10.49-3.61,2.55-8.99,3.49-14.27,3.49ZM249.08,111.2c-2.58,0-6.67.43-9.24,2.85-1.85,1.74-2.66,4.35-2.39,7.77l.12,1.58c1.03,13.62,1.19,15.71,12.97,15.81.62,0,1.19.29,1.57.78.78,1.02.46,2.26-.25,4.96-1,3.83-2.68,10.23.37,12.04,3.8,2.27,19.38,4.37,26.01-.31,2.28-1.61,3.1-3.86,2.49-6.86-.4-1.97-.72-4-1.04-5.97-2.19-13.59-4.26-26.42-28.3-32.52-.26-.03-1.13-.12-2.3-.12Z"/>
</svg>