<?xml version="1.0" encoding="UTF-8"?>
<svg id="_레이어_6" data-name="레이어 6" xmlns="http://www.w3.org/2000/svg" viewBox="0 0 302 241.06">
  <defs>
    <style>
      .cls-1 {
        fill: #3a3a3a;
      }

      .cls-2 {
        fill: #99590e;
      }

      .cls-3 {
        fill: #7f583d;
      }

      .cls-4 {
        fill: #b28134;
      }

      .cls-5 {
        fill: #6c3707;
      }

      .cls-6 {
        fill: #663210;
      }

      .cls-7 {
        fill: #adadad;
      }

      .cls-8 {
        fill: #da641a;
      }
    </style>
  </defs>
  <g>
    <path class="cls-2" d="M204.19,175.63s-8.22,23.25,6.37,30.78c0,0-11.96,4.63-6.92,12.58,5.03,7.96,32.41-.63,32.09-10.38-.27-8.46-8.82-2.55-5.11-13.08,2.83-8.02-2.61-8.53-2.52-10.91"/>
    <path class="cls-5" d="M211.84,223.8c-4.12,0-7.81-1.05-9.61-3.9-1.51-2.38-1.88-4.76-1.11-7.08,1.01-3.07,3.87-5.27,6.07-6.57-4.84-3.74-7.23-9.93-6.95-18.1.24-6.93,2.29-12.82,2.38-13.07.31-.87,1.26-1.33,2.13-1.02.87.31,1.33,1.26,1.02,2.13-.08.22-7.56,21.97,5.56,28.74.58.3.94.92.9,1.57-.04.66-.45,1.23-1.07,1.47-1.58.62-5.89,2.87-6.88,5.89-.44,1.34-.19,2.73.77,4.24,1.75,2.77,8.37,3.14,15.74.87,7.8-2.4,13.38-6.73,13.26-10.31-.09-2.81-1.09-3.31-2.6-4.06-3.21-1.59-4.54-3.6-2.41-9.63,1.58-4.48.28-5.85-.98-7.18-.75-.79-1.68-1.77-1.63-3.24.03-.92.81-1.64,1.73-1.61.92.03,1.64.81,1.61,1.73.05.12.45.54.71.82,1.49,1.56,3.98,4.18,1.71,10.59-1.55,4.39-.83,4.74.74,5.52,1.71.85,4.3,2.13,4.46,6.94.13,4.03-3.88,10-15.62,13.61-3.1.95-6.66,1.62-9.94,1.62Z"/>
  </g>
  <g>
    <path class="cls-2" d="M139.46,178.1l-5.03,23.91s-14.16-6.61-16.67,3.78c-2.52,10.38,28,19.82,34.92,11.96,2.18-2.48,3.95-7.32,5.36-12.8,1.15-4.47,6.55-7.63,7.23-12,1.14-7.28-2.84-14.85-2.84-14.85"/>
    <path class="cls-5" d="M143.42,222.32c-5.91,0-12.9-1.8-18.42-4.68-6.68-3.48-9.91-7.94-8.87-12.24.71-2.92,2.28-4.98,4.66-6.13,4.1-1.97,9.55-.55,12.41.46l4.63-21.97c.19-.9,1.07-1.48,1.98-1.29.9.19,1.48,1.08,1.29,1.98l-5.03,23.91c-.11.5-.43.92-.89,1.15-.46.23-.99.24-1.45.02-1.99-.93-7.95-2.96-11.48-1.25-1.46.7-2.39,1.98-2.86,3.9-.64,2.65,2.04,5.82,7.16,8.49,9.21,4.79,21.54,5.77,24.88,1.97,1.21-1.38,3.07-4.6,5-12.11.65-2.53,2.33-4.54,3.96-6.5,1.52-1.82,2.95-3.54,3.23-5.34,1.04-6.63-2.63-13.74-2.67-13.81-.43-.82-.11-1.83.71-2.26.82-.43,1.83-.11,2.25.7.17.33,4.22,8.15,3.01,15.88-.42,2.72-2.23,4.88-3.97,6.97-1.46,1.74-2.83,3.39-3.29,5.19-1.71,6.64-3.58,11.05-5.72,13.49-2.13,2.42-6.01,3.47-10.51,3.47Z"/>
  </g>
  <g>
    <path class="cls-2" d="M103.98,92.68s-31.55-39.83,13.69-64.18c40.03-21.55,67.64,0,67.64,0,0,0,25.25-16.44,59.23-3.22,33.98,13.21,50.26,40.43,23.6,67.17l.71,63.08s-.47,26.43-38.93,28.55c-38.46,2.12-115.86-2.6-115.86-2.6,0,0-15.34,2.6-12.74-30.91,2.6-33.51,2.67-57.89,2.67-57.89Z"/>
    <path class="cls-5" d="M205.68,186.3c-38.6,0-88.41-2.94-91.57-3.13-.95.1-4.64.23-8.11-2.94-5.36-4.9-7.5-14.92-6.34-29.77,2.35-30.27,2.63-53.35,2.67-57.2-2.27-3.04-13.68-19.45-9.97-37.41,2.4-11.64,10.66-21.33,24.54-28.81,11.67-6.28,29.81-12.81,50-8.24,9.74,2.2,16.19,6.13,18.52,7.71,5.1-2.95,28.73-14.85,59.76-2.78,20.68,8.04,34.28,20.89,37.31,35.26,2.41,11.42-1.96,23.22-12.64,34.15l.7,62.38c0,.34-.19,7.26-5.36,14.47-4.71,6.57-14.63,14.63-35.16,15.77-7.02.39-15.37.55-24.33.55ZM114.07,179.81s.06,0,.09,0c.77.05,77.74,4.69,115.66,2.59,36.35-2.01,37.33-25.9,37.36-26.92l-.71-63.03c0-.45.17-.88.49-1.2,10.21-10.24,14.44-21.17,12.24-31.6-2.79-13.24-15.64-25.2-35.25-32.83-32.72-12.73-57.46,2.91-57.71,3.07-.6.39-1.38.35-1.94-.08-.07-.05-6.86-5.25-18.31-7.81-10.55-2.36-27.36-2.89-47.51,7.96-12.96,6.98-20.65,15.9-22.85,26.52-3.71,17.94,9.55,34.99,9.68,35.16.23.3.36.66.36,1.04,0,.24-.11,24.83-2.68,58.01-1.32,17.06,2.09,24.09,5.19,26.98,2.73,2.54,5.51,2.17,5.62,2.15.09-.01.18-.02.27-.02Z"/>
  </g>
  <g>
    <path class="cls-2" d="M251.15,116.52s8.66-7.41,15.87-4.93c13.45,4.61,8.49,15.02,8.49,15.02,0,0,9.6,0,12.43,8,1.92,5.44.47,14.69-3.66,17.58,0,0,15.55,27.88-10.8,25.37-26.22-2.5-7.55-23.91-7.55-23.91,0,0,2.83-10.79-14.79-12.32"/>
    <path class="cls-5" d="M276.65,179.38c-1.05,0-2.16-.06-3.32-.17-8.07-.77-13.06-3.41-14.82-7.83-2.89-7.26,4.26-16.54,5.87-18.48.11-.79.23-2.89-1.24-4.93-1.96-2.74-6.16-4.46-12.13-4.97-.92-.08-1.6-.89-1.52-1.81.08-.92.89-1.6,1.81-1.52,7.13.62,12.04,2.78,14.61,6.43,2.7,3.83,1.69,7.81,1.65,7.98-.07.25-.19.48-.36.67-2.24,2.57-7.6,10.35-5.58,15.41,1.26,3.17,5.31,5.1,12.03,5.74,6.27.6,10.39-.55,12.26-3.4,3.44-5.26-1.05-15.85-3.08-19.49-.42-.75-.2-1.69.5-2.18,3.21-2.25,4.83-10.59,3.04-15.65-.99-2.8-3.07-4.8-6.18-5.95-2.45-.91-4.66-.93-4.68-.93-.57,0-1.1-.3-1.41-.78-.3-.48-.34-1.09-.1-1.61.01-.03,1.55-3.41.11-6.78-1.1-2.58-3.67-4.58-7.64-5.94-6.22-2.13-14.17,4.55-14.25,4.62-.7.6-1.76.52-2.36-.19-.6-.7-.52-1.75.18-2.35.38-.33,9.48-7.99,17.5-5.24,4.93,1.69,8.17,4.33,9.65,7.84,1.17,2.78.94,5.49.53,7.29,3.33.52,9.46,2.36,11.78,8.91,1.93,5.46.78,14.47-3.14,18.53,1.84,3.71,6.75,14.95,2.32,21.73-2.2,3.37-6.25,5.07-12.06,5.07Z"/>
  </g>
  <path class="cls-4" d="M96.04,68.3s.39-8.5,6.14-16.48c4.98-6.92,14.37-13.32,26.43-15.08,25.96-3.78,44.36,11.26,44.36,11.26,0,0,24.34-14.79,50.34-10.53,10.49,1.72,21.05,9.87,26.47,17.73,6.33,9.2,3.86,27.25-7.43,41.25v63.87s2.28,21.1-15.18,22.05c-9.69.52-36.57,1.47-65.07-.31-22.24-1.39-45.12-1.02-50.08-2.43-4.13-1.18-8.89-2.66-9.32-21.47-.11-4.6.86-9.69,1.22-16.71,1.8-35.7,1.74-49.69,1.74-49.69,0,0-9.72-10.4-9.6-23.46Z"/>
  <ellipse class="cls-6" cx="195.97" cy="89.94" rx="6.25" ry="8.59"/>
  <ellipse class="cls-6" cx="151.92" cy="88.29" rx="6.25" ry="8.59"/>
  <path class="cls-6" d="M154.56,110.93s-.64-7.33,4.25-7.31c7.32.02,19.58,3.54,28.55,1.18,8.97-2.36,9.44,17.93-6.13,22.65-15.57,4.72-27.14-6.84-26.66-16.52Z"/>
  <path class="cls-8" d="M163.21,118.48c0-2.75,2.83-6.14,9.83-5.27,7,.87,12.86,1.42,12.03,6.37-.27,1.62-3.03,3.37-5.58,4.33-2.81,1.06-6.68.78-9.52.31-3.92-.65-6.76-4.59-6.76-5.74Z"/>
  <path class="cls-3" d="M179,148.5c-16.01,0-31.33-2.63-33.97-3.73-.85-.35-1.26-1.33-.91-2.18.35-.85,1.33-1.26,2.18-.91,4.11,1.7,43.33,7.53,61.22-1.22.83-.41,1.83-.06,2.24.77.41.83.06,1.83-.77,2.24-7.76,3.8-19.04,5.03-30,5.03Z"/>
  <path class="cls-3" d="M173.63,175.1c-.71,0-1.37-.46-1.59-1.17-3.05-9.61-.18-26.5-.05-27.22.16-.91,1.02-1.52,1.93-1.36.91.16,1.52,1.02,1.36,1.93-.03.17-2.86,16.81-.05,25.64.28.88-.21,1.82-1.09,2.1-.17.05-.34.08-.51.08Z"/>
  <path class="cls-3" d="M174.37,163.9c-16.66,0-28.47-3.86-29.23-4.11-.88-.29-1.35-1.24-1.05-2.11.29-.88,1.24-1.34,2.11-1.06.28.09,28.86,9.39,59.63-1.18.87-.3,1.82.16,2.12,1.04.3.87-.16,1.82-1.04,2.12-11.67,4.01-22.92,5.3-32.55,5.3Z"/>
  <path class="cls-3" d="M179.62,177.32c-3.5,0-7.18-.17-11.02-.51-11.74-1.03-20.55-3.28-20.92-3.38-.89-.23-1.43-1.14-1.2-2.04.23-.89,1.14-1.43,2.04-1.2.35.09,35.34,8.94,57.18-.85.84-.38,1.83,0,2.21.84.38.84,0,1.83-.84,2.21-7.32,3.28-16.51,4.92-27.44,4.92Z"/>
  <g>
    <g>
      <polygon class="cls-7" points="98.36 78.79 38.52 132.86 30.14 123.36 89.98 69.29 98.36 78.79"/>
      <path class="cls-5" d="M38.52,134.53s-.06,0-.09,0c-.45-.03-.86-.23-1.16-.56l-8.38-9.5c-.61-.69-.55-1.73.13-2.35l59.84-54.07c.33-.3.77-.45,1.21-.43.45.03.86.23,1.16.56l8.38,9.5c.61.69.55,1.73-.13,2.35l-59.84,54.07c-.31.28-.71.43-1.12.43ZM32.48,123.49l6.17,6.99,57.36-51.83-6.17-6.99-57.36,51.83Z"/>
    </g>
    <g>
      <rect class="cls-1" x="17.62" y="122.9" width="15.14" height="22.86" rx="7.57" ry="7.57" transform="translate(-82.6 50.3) rotate(-41.44)"/>
      <path class="cls-5" d="M27.75,146.46c-2.56,0-5.11-1.05-6.93-3.12l-5.11-5.79c-1.63-1.85-2.45-4.23-2.3-6.69s1.26-4.72,3.11-6.35c1.85-1.63,4.22-2.45,6.69-2.3,2.46.15,4.72,1.26,6.35,3.11l5.11,5.79c1.63,1.85,2.45,4.23,2.3,6.69s-1.26,4.72-3.11,6.35h0c-1.75,1.55-3.94,2.31-6.11,2.31ZM22.62,125.53c-1.44,0-2.81.52-3.9,1.48-1.18,1.04-1.89,2.48-1.98,4.06-.1,1.57.42,3.09,1.47,4.27l5.11,5.79c2.15,2.44,5.89,2.67,8.33.52h0c1.18-1.04,1.89-2.48,1.98-4.06.1-1.57-.42-3.09-1.47-4.27l-5.11-5.79c-1.04-1.18-2.48-1.89-4.06-1.98-.13,0-.25-.01-.37-.01Z"/>
    </g>
    <g>
      <rect class="cls-1" x="92.17" y="55.84" width="15.14" height="22.86" rx="7.57" ry="7.57" transform="translate(-19.55 82.85) rotate(-41.44)"/>
      <path class="cls-5" d="M102.31,79.41c-.19,0-.39,0-.59-.02-2.46-.15-4.72-1.26-6.35-3.11l-5.11-5.79c-1.63-1.85-2.45-4.23-2.3-6.69.15-2.46,1.26-4.72,3.11-6.35,1.85-1.63,4.23-2.45,6.69-2.3,2.46.15,4.72,1.26,6.35,3.11l5.11,5.79c1.63,1.85,2.45,4.23,2.3,6.69-.15,2.46-1.26,4.72-3.11,6.35h0c-1.7,1.5-3.85,2.31-6.1,2.31ZM97.18,58.48c-1.39,0-2.78.49-3.9,1.47-1.18,1.04-1.89,2.48-1.98,4.06-.1,1.57.42,3.09,1.47,4.27l5.11,5.79c2.15,2.44,5.89,2.67,8.33.52h0c1.18-1.04,1.89-2.48,1.98-4.06.1-1.57-.42-3.09-1.47-4.27l-5.11-5.79c-1.16-1.32-2.79-1.99-4.43-1.99Z"/>
    </g>
    <g>
      <rect class="cls-1" x="21.55" y="100.18" width="26.88" height="52.22" rx="13.44" ry="13.44" transform="translate(-74.83 54.78) rotate(-41.44)"/>
      <path class="cls-5" d="M43.38,150.89c-4.19,0-8.35-1.72-11.34-5.1l-16.77-18.99c-5.52-6.25-4.92-15.82,1.33-21.33,6.25-5.52,15.81-4.92,21.33,1.33l16.77,18.99c5.52,6.25,4.92,15.82-1.33,21.33h0c-2.87,2.53-6.44,3.78-9.99,3.78ZM26.6,105.03c-2.77,0-5.55.97-7.78,2.94-2.36,2.08-3.76,4.95-3.96,8.09-.2,3.14.84,6.16,2.92,8.52l16.77,18.99c4.29,4.86,11.75,5.33,16.61,1.03,2.36-2.08,3.76-4.95,3.96-8.09.2-3.14-.84-6.16-2.92-8.52l-16.77-18.99c-2.32-2.63-5.57-3.97-8.83-3.97ZM52.27,145.86h0,0Z"/>
    </g>
    <g>
      <rect class="cls-1" x="77.14" y="49.87" width="26.88" height="52.22" rx="13.44" ry="13.44" transform="translate(-27.61 78.97) rotate(-41.44)"/>
      <path class="cls-5" d="M98.98,100.59c-.32,0-.64,0-.96-.03-4.03-.25-7.72-2.06-10.39-5.08l-16.77-18.99c-2.67-3.03-4.01-6.91-3.75-10.94.25-4.03,2.05-7.72,5.08-10.39,3.03-2.67,6.91-4.01,10.94-3.75,4.03.25,7.72,2.05,10.39,5.08l16.77,18.99c5.52,6.25,4.92,15.82-1.33,21.33-2.78,2.46-6.3,3.78-9.98,3.78ZM82.17,54.71c-2.87,0-5.6,1.03-7.77,2.95-2.36,2.08-3.76,4.95-3.96,8.09-.2,3.14.84,6.16,2.92,8.52l16.77,18.99c2.08,2.36,4.95,3.76,8.09,3.96,3.14.19,6.16-.84,8.52-2.92,2.36-2.08,3.76-4.95,3.96-8.09.2-3.14-.84-6.16-2.92-8.52l-16.77-18.99c-2.08-2.36-4.95-3.76-8.09-3.96-.25-.02-.5-.02-.75-.02Z"/>
    </g>
  </g>
  <g>
    <path class="cls-2" d="M103.4,115.07s1.76-3.75-3.28-6.12c-11.33-5.33-21.66,5.87-24.33.05,0,0,7.14-10.7,2.42-16.67-1.43-1.81-7.45-11.96-13.74-12.27-3.46-.17-17.84,5.94-20.72,14.51-2.36,7.02,5.93,16.46,9.57,19.07,0,0-.03,34.35,48.56,29.24l1.53-27.81Z"/>
    <path class="cls-5" d="M92.42,145.07c-13.12,0-23.37-3.26-30.55-9.73-8.71-7.85-10.01-17.88-10.2-20.85-3.93-3.19-12.14-12.63-9.52-20.45,3.18-9.46,18.42-15.84,22.39-15.65,6.21.31,11.57,8.03,14.14,11.74.35.51.66.95.83,1.17,4.53,5.73.06,14.59-1.7,17.6.71.39,2.11.08,5.41-1.01,4.61-1.52,10.91-3.6,17.61-.45,5.46,2.57,4.64,6.69,4.23,7.96l-1.51,27.57c-.04.82-.68,1.49-1.49,1.57-3.36.35-6.57.53-9.63.53ZM101.87,142.88h0,0ZM64.27,81.73c-3.03,0-16.37,5.71-18.95,13.38-2.01,6,5.69,14.84,8.96,17.18.44.31.7.82.7,1.36,0,.11.14,11.15,9.17,19.26,7.89,7.08,20.04,9.92,36.13,8.46l1.45-26.38c.01-.21.06-.41.15-.6.23-.55.72-2.42-2.47-3.92-5.49-2.58-10.84-.82-15.14.6-4,1.32-8.14,2.69-10-1.36-.24-.53-.19-1.14.13-1.63,1.79-2.7,5.74-10.6,2.5-14.71-.24-.3-.55-.76-.95-1.33-1.91-2.76-7-10.08-11.56-10.31-.03,0-.07,0-.11,0Z"/>
  </g>
</svg>