<?xml version="1.0" encoding="UTF-8"?>
<svg id="_레이어_3" data-name="레이어 3" xmlns="http://www.w3.org/2000/svg" viewBox="0 0 302 241.06">
  <defs>
    <style>
      .cls-1 {
        fill: #fcbd42;
      }

      .cls-2 {
        fill: #ec9153;
      }

      .cls-3 {
        fill: #ea820a;
      }

      .cls-4 {
        fill: #e7830c;
      }

      .cls-5 {
        fill: #e89013;
      }

      .cls-6 {
        fill: #ca3d1d;
      }

      .cls-7 {
        fill: #f5da9d;
      }

      .cls-8 {
        fill: #632f0b;
      }

      .cls-9 {
        fill: #6c3707;
      }

      .cls-10 {
        fill: #da641a;
      }
    </style>
  </defs>
  <g>
    <g>
      <path class="cls-5" d="M169.33,181.51s-11,24.99,11.33,29.99c0,0-12.66,4.9-7.33,13.33,5.33,8.43,34.32-.67,33.99-11-.33-10.33-11.33-6.33-10.66-25.33"/>
      <path class="cls-9" d="M182.01,229.91c-4.36,0-8.27-1.11-10.18-4.13-1.59-2.52-1.99-5.05-1.18-7.5.92-2.8,3.3-4.92,5.43-6.33-4.25-1.72-7.34-4.45-9.21-8.14-4.91-9.71.59-22.47.83-23,.39-.9,1.44-1.3,2.33-.91.89.39,1.3,1.44.91,2.33h0c-.05.12-5.07,11.78-.91,19.99,1.93,3.81,5.63,6.36,11,7.56.76.17,1.32.82,1.38,1.6s-.4,1.5-1.13,1.78c-1.67.65-6.24,3.04-7.29,6.24-.47,1.42-.2,2.89.81,4.49,1.86,2.94,8.87,3.32,16.68.92,8.26-2.54,14.17-7.13,14.05-10.92-.11-3.56-1.65-4.96-3.78-6.9-3.25-2.96-7.3-6.65-6.88-18.54.03-.98.87-1.74,1.83-1.71.98.03,1.74.85,1.71,1.83-.36,10.26,2.73,13.07,5.73,15.8,2.35,2.14,4.77,4.35,4.94,9.41.14,4.26-4.11,10.6-16.55,14.42-3.28,1.01-7.05,1.72-10.53,1.72Z"/>
    </g>
    <g>
      <path class="cls-5" d="M105.35,181.51l-5.33,25.33s-15-7-17.66,4c-2.67,11,29.66,20.99,36.99,12.66,7.33-8.33,10.33-41.99,10.33-41.99"/>
      <path class="cls-9" d="M109.54,228.34c-6.26,0-13.66-1.91-19.51-4.96-7.07-3.68-10.5-8.41-9.39-12.97.75-3.09,2.41-5.28,4.94-6.49,4.34-2.09,10.11-.58,13.14.49l4.9-23.27c.2-.96,1.14-1.57,2.1-1.37.96.2,1.57,1.14,1.37,2.1l-5.33,25.33c-.11.53-.46.98-.94,1.22-.48.24-1.05.25-1.54.02-2.11-.98-8.42-3.13-12.16-1.32-1.54.74-2.53,2.1-3.03,4.13-.68,2.81,2.16,6.17,7.59,8.99,9.76,5.08,22.81,6.11,26.35,2.08,5.7-6.47,9.08-31.77,9.9-40.98.09-.97.95-1.69,1.92-1.61.97.09,1.69.95,1.61,1.92,0,.09-.78,8.6-2.44,18.02-2.27,12.87-5.07,21.28-8.33,24.98-2.26,2.56-6.36,3.67-11.13,3.67Z"/>
    </g>
    <g>
      <path class="cls-5" d="M67.78,91.04s-33.42-42.19,14.5-67.98c42.4-22.83,71.65,0,71.65,0,0,0,26.74-17.41,62.73-3.42,35.99,14,53.23,42.82,24.99,71.15l.75,66.81s-.5,27.99-41.24,30.24c-40.74,2.25-122.71-2.75-122.71-2.75,0,0-16.25,2.75-13.5-32.74,2.75-35.49,2.83-61.32,2.83-61.32Z"/>
      <path class="cls-9" d="M175.49,190.19c-40.88,0-93.65-3.12-97-3.32-1.01.1-4.91.25-8.6-3.12-5.68-5.19-7.94-15.8-6.72-31.54,2.48-32.07,2.79-56.51,2.82-60.59-2.4-3.22-14.49-20.61-10.56-39.62,2.54-12.33,11.29-22.6,25.99-30.51,12.36-6.65,31.57-13.57,52.95-8.73,10.31,2.33,17.15,6.49,19.61,8.17,5.4-3.12,30.43-15.73,63.29-2.95,21.91,8.52,36.31,22.13,39.52,37.34,2.55,12.1-2.08,24.59-13.39,36.17l.74,66.08c0,.36-.2,7.69-5.67,15.33-4.99,6.96-15.49,15.5-37.24,16.7-7.44.41-16.28.58-25.76.58ZM78.46,183.32s.06,0,.09,0c.82.05,82.34,4.97,122.51,2.75,38.5-2.13,39.54-27.43,39.57-28.51l-.75-66.76c0-.48.18-.93.52-1.27,10.81-10.84,15.29-22.42,12.96-33.47-2.96-14.02-16.57-26.69-37.34-34.77-34.66-13.48-60.87,3.08-61.13,3.25-.63.41-1.46.38-2.05-.09-.07-.05-7.27-5.56-19.4-8.27-11.18-2.49-28.98-3.06-50.32,8.43-13.73,7.39-21.87,16.84-24.2,28.09-3.93,19,10.11,37.06,10.25,37.24.25.31.38.7.38,1.1,0,.26-.12,26.3-2.84,61.45-1.4,18.07,2.22,25.51,5.5,28.57,2.89,2.69,5.83,2.3,5.96,2.28.09-.01.19-.02.29-.02Z"/>
    </g>
    <path class="cls-7" d="M59.36,65.21s.42-9,6.5-17.45c5.28-7.33,15.22-14.11,27.99-15.97,27.49-4,46.99,11.93,46.99,11.93,0,0,25.78-15.66,53.32-11.16,11.11,1.82,22.3,10.45,28.03,18.78,6.71,9.74,4.09,28.87-7.87,43.7v67.65s2.42,22.35-16.08,23.35c-10.26.55-38.74,1.56-68.93-.33-23.56-1.47-47.79-1.08-53.04-2.57-4.38-1.25-9.41-2.81-9.87-22.74-.11-4.88.92-10.27,1.29-17.7,1.91-37.81,1.84-52.63,1.84-52.63,0,0-10.3-11.02-10.17-24.85Z"/>
    <circle class="cls-2" cx="96.77" cy="105.7" r="12.66"/>
    <circle class="cls-2" cx="186.58" cy="108.14" r="12.66"/>
    <ellipse class="cls-8" cx="165.21" cy="88.13" rx="6.62" ry="9.09"/>
    <ellipse class="cls-8" cx="118.56" cy="86.38" rx="6.62" ry="9.09"/>
    <path class="cls-8" d="M121.35,110.36s-.68-7.76,4.5-7.75c7.75.02,20.74,3.75,30.24,1.25,9.5-2.5,10,18.99-6.5,23.99-16.5,5-28.74-7.25-28.24-17.49Z"/>
    <path class="cls-10" d="M130.51,118.36c0-2.92,3-6.5,10.41-5.58,7.41.92,13.62,1.5,12.75,6.75-.29,1.72-3.21,3.57-5.91,4.58-2.98,1.12-7.08.83-10.08.33-4.15-.68-7.16-4.86-7.16-6.08Z"/>
  </g>
  <g>
    <g>
      <path class="cls-6" d="M91.24,141.62s-7.33,56.65,45.65,55.65c10.8-.2,24.86-.56,31.99-4,27.86-13.42,25.33-46.99,25.33-46.99"/>
      <path class="cls-9" d="M135.52,199.05c-14.81,0-26.34-4.5-34.3-13.38-15.09-16.85-11.88-43.17-11.74-44.28.13-.97,1.01-1.65,1.98-1.53.97.13,1.65,1.01,1.53,1.98-.03.26-3.13,25.86,10.88,41.48,7.49,8.35,18.6,12.44,32.99,12.18,9.66-.18,24.27-.46,31.26-3.82,26.41-12.73,24.35-44.94,24.33-45.26-.07-.97.66-1.82,1.63-1.9.96-.07,1.82.66,1.9,1.63.03.35,2.29,34.93-26.32,48.71-7.68,3.7-22.75,3.99-32.73,4.17-.47,0-.94.01-1.41.01Z"/>
    </g>
    <g>
      <path class="cls-6" d="M142.56,163.27c-25.25,0-51.36-7.24-51.36-19.37s26.12-19.37,51.36-19.37,51.36,7.24,51.36,19.37-26.12,19.37-51.36,19.37Z"/>
      <path class="cls-9" d="M142.56,126.31c27.39,0,49.59,7.88,49.59,17.6s-22.2,17.6-49.59,17.6-49.59-7.88-49.59-17.6,22.2-17.6,49.59-17.6M142.56,122.77c-13.64,0-26.51,1.9-36.25,5.36-13.95,4.95-16.88,11.31-16.88,15.78s2.93,10.83,16.88,15.78c9.74,3.45,22.61,5.36,36.25,5.36s26.51-1.9,36.25-5.36c13.95-4.95,16.88-11.31,16.88-15.78s-2.93-10.83-16.88-15.78c-9.74-3.45-22.61-5.36-36.25-5.36h0Z"/>
    </g>
    <path class="cls-3" d="M142.97,137.76c-26.36,0-39.99,7.91-46.07,13.04,1.76,1.44,4.05,2.77,6.77,3.98,9.09,4.03,23.05,6.61,38.73,6.61,18.55,0,34.7-3.61,43.21-8.96,1-.63,1.89-1.28,2.67-1.95-3.14-5.62-17.74-12.72-45.31-12.72Z"/>
    <g>
      <path class="cls-3" d="M160.8,150.57c7.76-2.22,13.23-.48,16.45,1.36.21.12.42.25.62.37-2.46-1.82-7.62-4.26-16.17-2.21-10.17,2.43-19.66.95-27.22-.99,7.29,2.31,16.56,4.25,26.32,1.46Z"/>
      <path class="cls-3" d="M161.7,159.17c-13.56,3.24-25.89-.47-34.06-2.93l-1.37-.41c-5.37-1.6-10.6-.34-15.1,1.95.18.05.36.1.55.15,5.35-2.24,10.61-2.67,15.57-1.19l1.38.41c6.17,1.86,14.83,4.45,24.43,3.97,1.39-.11,2.77-.25,4.11-.4,1.21-.18,2.44-.39,3.67-.69,2.18-.52,4.17-.78,6-.85,1.04-.22,2.05-.44,3.04-.68-2.29-.22-5.01-.09-8.21.68Z"/>
      <path class="cls-3" d="M106.58,156.31c7.1-4.48,14.17-5.83,20.7-3.88l1.38.41c7.8,2.35,19.59,5.9,32.22,2.88,7.01-1.68,12.15-.7,15.65.84.28-.1.56-.19.83-.29-.26-.21-.54-.42-.84-.63-3.2-1.58-8.18-2.76-15.23-1.08-13.88,3.32-26.68-.99-34.52-3.32-6.16-1.84-12.76-.36-19.16,3.64-.51.41-1.01.83-1.49,1.26.15.06.3.12.45.17Z"/>
      <path class="cls-1" d="M126.77,151.24c7.83,2.33,20.64,6.64,34.52,3.32,7.05-1.69,12.03-.5,15.23,1.08-2.77-1.92-7.54-3.72-14.74-1.66-13.64,3.89-26.03-.56-34.22-3.51l-1.37-.49c-6.8-2.41-13.4.75-18.57,4.9,6.4-4,13-5.48,19.16-3.64Z"/>
      <path class="cls-1" d="M182.46,151.81c-.27-.36-6.75-8.7-21.58-5.15-12.62,3.02-24.41-.53-32.22-2.88l-1.38-.41c-8.15-2.43-17.13.26-25.96,7.77-.74.63-.84,1.75-.2,2.5.49.58,1.27.76,1.94.52,8.28-7.63,16.64-10.23,24.31-7.5l1.38.5c1.73.62,3.65,1.31,5.74,1.97,7.55,1.93,17.04,3.42,27.22.99,8.55-2.05,13.7.39,16.17,2.21,1.22.77,2.18,1.58,2.92,2.31.09.01.17.03.26.03.12,0,.23-.02.35-.04.26-.12.52-.25.77-.37.72-.6.86-1.66.29-2.42Z"/>
      <path class="cls-4" d="M180.78,154.61c-.44-.07-.86-.29-1.15-.68-.07-.09-.63-.79-1.76-1.63-.2-.13-.41-.25-.62-.37-3.22-1.85-8.69-3.58-16.45-1.36-9.75,2.79-19.02.85-26.32-1.46-2.51-.64-4.81-1.33-6.85-1.95l-1.37-.41c-8.77-2.62-17.16,2.41-22.66,7.08-.17.14-.36.25-.56.32-.18.17-.36.34-.54.51.22.1.43.2.66.3.85.38,1.75.74,2.69,1.09.58-.41,1.17-.79,1.75-1.16,5.17-4.16,11.77-7.32,18.57-4.9l1.37.49c8.2,2.95,20.59,7.4,34.22,3.51,7.2-2.06,11.97-.26,14.74,1.66.37.18.72.37,1.04.56,1.21-.44,2.34-.91,3.41-1.39-.06-.06-.12-.12-.19-.19Z"/>
      <path class="cls-1" d="M128.66,157.14l-1.38-.41c-4.96-1.48-10.22-1.05-15.57,1.19,2.26.62,4.68,1.17,7.22,1.64,2.38-.31,4.84-.18,7.33.56l1.37.41c.47.14.95.29,1.44.43,4.09.39,8.38.6,12.82.6,3.85,0,7.6-.16,11.19-.45-9.6.48-18.26-2.11-24.43-3.97Z"/>
      <path class="cls-1" d="M160.88,155.72c-12.62,3.02-24.41-.53-32.22-2.88l-1.38-.41c-6.53-1.95-13.6-.6-20.7,3.88,1.44.52,2.97,1.01,4.59,1.46,4.51-2.29,9.73-3.55,15.1-1.95l1.37.41c8.17,2.46,20.51,6.18,34.06,2.93,3.2-.77,5.93-.9,8.21-.68,2.36-.58,4.57-1.22,6.61-1.93-3.51-1.54-8.65-2.51-15.65-.84Z"/>
    </g>
  </g>
  <g>
    <path class="cls-5" d="M241.73,141.5s-8.33,37.59-44.42,33.47c0,0-28.7,9.47-22.64-17.9,6.03-27.24,26.11-4.84,26.11-4.84,0,0,10.98,4.37,14.86-13.95"/>
    <path class="cls-9" d="M187.29,178.33c-3.89,0-8.08-.81-11.11-3.54-4-3.62-5.09-9.7-3.23-18.09,1.86-8.38,5.27-13.28,10.16-14.56,8.01-2.1,16.83,6.62,18.67,8.56.81.22,3.01.61,5.35-.66,3.13-1.71,5.48-5.9,6.8-12.11.2-.96,1.15-1.57,2.1-1.36.96.2,1.57,1.14,1.36,2.1-1.57,7.41-4.48,12.3-8.65,14.53-4.37,2.34-8.43.77-8.6.7-.25-.1-.48-.26-.66-.46-2.41-2.68-9.9-9.33-15.48-7.86-3.49.92-6.05,4.92-7.59,11.9-1.56,7.05-.84,11.99,2.15,14.7,5.71,5.17,18.09,1.18,18.21,1.14.24-.08.5-.11.75-.08,14.26,1.62,25.71-3.22,34.05-14.4,6.33-8.48,8.42-17.61,8.44-17.7.21-.95,1.15-1.55,2.11-1.34.95.21,1.56,1.16,1.34,2.11-.09.4-2.24,9.87-8.98,18.95-6.25,8.42-17.74,18-36.99,15.94-1.29.39-5.53,1.55-10.2,1.55Z"/>
  </g>
  <g>
    <line class="cls-5" x1="82.2" y1="129.14" x2="140.54" y2="131.79"/>
    <path class="cls-9" d="M140.54,133.56s-.05,0-.08,0l-58.34-2.65c-.98-.04-1.73-.87-1.69-1.85.04-.98.87-1.72,1.85-1.69l58.34,2.65c.98.04,1.73.87,1.69,1.85-.04.95-.83,1.69-1.77,1.69Z"/>
  </g>
  <g>
    <path class="cls-1" d="M124.29,174.21c-.5,0-1-.21-1.35-.63-.15-.18-1.52-1.92-2.48-6.09-.53-2.32.59-4.37,1.58-6.18,1.31-2.4,1.75-3.5.78-4.78-1.72-2.25-2.43-5.16-2.01-8.2.38-2.72,1.63-5.12,3.36-6.42,1.68-1.27,1.27-5.98-1.78-10.16-4.32-5.93,2.36-13.05,2.65-13.35.68-.71,1.8-.73,2.5-.06.71.67.73,1.79.06,2.5-.1.1-4.92,5.29-2.35,8.82,4.12,5.65,4.58,12.41,1.04,15.08-.96.72-1.74,2.32-1.98,4.07-.17,1.21-.22,3.55,1.32,5.57,2.46,3.23.76,6.35-.49,8.62-.76,1.38-1.47,2.68-1.24,3.69.76,3.31,1.76,4.63,1.77,4.64.59.76.47,1.87-.28,2.48-.33.26-.72.39-1.11.39Z"/>
    <path class="cls-4" d="M127.74,174.21c-.5,0-1-.21-1.35-.63-.15-.18-1.52-1.92-2.48-6.09-.53-2.32.59-4.37,1.58-6.18,1.31-2.4,1.75-3.5.78-4.78-1.72-2.25-2.43-5.16-2.01-8.2.38-2.72,1.63-5.12,3.36-6.42,1.68-1.26,1.27-5.98-1.78-10.16-4.32-5.93,2.36-13.05,2.65-13.35.68-.71,1.8-.73,2.5-.06.71.67.73,1.79.06,2.5-.1.1-4.92,5.29-2.35,8.82,4.12,5.65,4.58,12.41,1.04,15.08-.96.72-1.74,2.32-1.98,4.07-.17,1.21-.22,3.55,1.32,5.57,2.46,3.23.76,6.35-.49,8.62-.75,1.38-1.47,2.68-1.24,3.69.76,3.31,1.76,4.63,1.77,4.64.59.76.47,1.87-.28,2.48-.33.26-.72.39-1.11.39Z"/>
    <path class="cls-1" d="M131.17,174.21c-.5,0-1-.21-1.35-.63-.15-.18-1.52-1.92-2.48-6.09-.53-2.32.59-4.37,1.58-6.18,1.31-2.4,1.75-3.5.78-4.78-1.72-2.25-2.43-5.16-2.01-8.2.38-2.72,1.63-5.12,3.36-6.42,1.68-1.26,1.27-5.98-1.78-10.16-4.32-5.93,2.36-13.05,2.65-13.35.68-.71,1.8-.73,2.5-.06.71.67.73,1.79.06,2.5-.1.1-4.92,5.29-2.35,8.82,4.12,5.65,4.58,12.41,1.04,15.08-.96.72-1.74,2.32-1.98,4.07-.17,1.21-.22,3.55,1.32,5.57,2.46,3.23.76,6.35-.49,8.62-.76,1.38-1.47,2.68-1.24,3.69.76,3.31,1.76,4.63,1.77,4.64.59.76.47,1.87-.28,2.48-.33.26-.72.39-1.11.39Z"/>
    <path class="cls-4" d="M134.62,174.21c-.5,0-1-.21-1.35-.63-.15-.18-1.52-1.92-2.48-6.09-.53-2.32.59-4.37,1.58-6.18,1.31-2.4,1.75-3.5.78-4.78-1.72-2.25-2.43-5.16-2.01-8.2.38-2.72,1.63-5.12,3.36-6.42,1.68-1.26,1.27-5.98-1.78-10.16-4.32-5.93,2.36-13.05,2.65-13.35.68-.71,1.8-.73,2.5-.06.71.67.73,1.79.06,2.5-.1.1-4.92,5.29-2.35,8.82,4.12,5.65,4.58,12.41,1.04,15.08-.96.72-1.74,2.32-1.98,4.07-.17,1.21-.22,3.55,1.32,5.57,2.46,3.23.76,6.35-.49,8.62-.76,1.38-1.47,2.68-1.24,3.69.76,3.31,1.76,4.63,1.77,4.64.59.76.47,1.87-.28,2.48-.33.26-.72.39-1.11.39Z"/>
  </g>
  <g>
    <line class="cls-5" x1="84.11" y1="116.45" x2="141.55" y2="127.69"/>
    <path class="cls-9" d="M141.56,129.46c-.11,0-.23-.01-.34-.03l-57.45-11.24c-.96-.19-1.58-1.12-1.4-2.08s1.12-1.59,2.08-1.4l57.45,11.24c.96.19,1.58,1.12,1.4,2.08-.17.84-.91,1.43-1.74,1.43Z"/>
  </g>
  <g>
    <path class="cls-5" d="M65.85,100.96c-2.14.93-24.41,9.8-18.64,28.84,2.38,7.86,13.62,10.29,20.97,10.83"/>
    <path class="cls-9" d="M68.19,142.4s-.09,0-.13,0c-5.8-.42-19.61-2.44-22.54-12.08-2.53-8.35-.33-16.16,6.38-22.59,3.41-3.27,7.79-6.06,13.02-8.29l.22-.09c.89-.39,1.94.02,2.33.92.39.9-.02,1.94-.92,2.33l-.24.1c-6.78,2.89-22.06,11.27-17.41,26.59,2.35,7.75,15.45,9.29,19.4,9.57.98.07,1.71.92,1.64,1.89-.07.93-.84,1.64-1.76,1.64Z"/>
  </g>
  <g>
    <path class="cls-5" d="M66.98,140.62c9.53.1,19.51-1.57,23.03,2.87,2.25,2.83,11.91,9.13,17.6,5.5,7.31-4.66,8.17-23.56,1.82-28.95-6.35-5.4-13.57-.5-18.09,3.46-2.12,1.85-23.23-6.41-24.58-8.75"/>
    <path class="cls-9" d="M103.54,151.86c-6.25,0-13.14-5.03-14.92-7.27-2.16-2.72-8.42-2.53-15.05-2.32-2.16.07-4.4.14-6.62.12-.98-.01-1.76-.81-1.75-1.79.01-.97.8-1.75,1.77-1.75h.02c2.15.02,4.34-.05,6.47-.11,7.54-.24,14.66-.47,17.93,3.65,2.01,2.53,10.74,7.99,15.26,5.11,2.76-1.76,4.8-6.65,5.2-12.45.41-6.01-1.02-11.5-3.57-13.66-1.49-1.26-6.02-5.11-15.78,3.44-.82.72-2.09.88-4.23.52-5.45-.9-21.33-6.75-23.05-9.72-.49-.85-.2-1.93.65-2.42.82-.47,1.86-.22,2.37.57.66.7,4.72,2.83,10.76,5.11,6.58,2.48,10.35,3.2,11.36,3.1,7.92-6.86,14.72-7.97,20.21-3.31,4.14,3.52,5.2,10.88,4.81,16.6-.48,7.1-3.04,12.78-6.82,15.19-1.54.98-3.25,1.38-5.02,1.38ZM68.28,113.82s.02.03.03.04c0-.01-.02-.03-.03-.04Z"/>
  </g>
</svg>