<?xml version="1.0" encoding="UTF-8"?>
<svg id="_레이어_4" data-name="레이어 4" xmlns="http://www.w3.org/2000/svg" viewBox="0 0 302 241.06">
  <defs>
    <style>
      .cls-1 {
        fill: #ec9153;
      }

      .cls-2 {
        fill: #d8d8d8;
      }

      .cls-3 {
        fill: #f6e2b6;
      }

      .cls-4 {
        fill: #fff;
      }

      .cls-5 {
        fill: #e89013;
      }

      .cls-6 {
        fill: #f5da9d;
      }

      .cls-7 {
        fill: #632f0b;
      }

      .cls-8 {
        fill: #6c3707;
      }

      .cls-9 {
        fill: #da641a;
      }
    </style>
  </defs>
  <g>
    <path class="cls-5" d="M191.3,203.35s-8.57,19.47,8.83,23.37c0,0-9.87,3.82-5.71,10.39s26.74-.52,26.48-8.57c-.26-8.05-8.83-4.93-8.31-19.73"/>
    <path class="cls-8" d="M201.18,241.06c-3.4,0-6.44-.87-7.93-3.22-1.24-1.96-1.55-3.93-.92-5.85.72-2.18,2.57-3.83,4.23-4.93-3.31-1.34-5.72-3.47-7.17-6.34-3.83-7.57.46-17.5.65-17.92.31-.7,1.12-1.01,1.82-.71.7.31,1.01,1.12.71,1.82h0c-.04.09-3.95,9.18-.71,15.58,1.51,2.97,4.39,4.95,8.57,5.89.59.13,1.03.64,1.07,1.24.05.61-.31,1.17-.88,1.39-1.3.51-4.86,2.37-5.68,4.86-.36,1.11-.16,2.25.63,3.5,1.45,2.29,6.91,2.59,12.99.72,6.44-1.98,11.04-5.56,10.95-8.51-.09-2.77-1.29-3.87-2.95-5.38-2.53-2.31-5.69-5.18-5.36-14.45.03-.76.67-1.36,1.43-1.33.76.03,1.36.67,1.33,1.43-.28,7.99,2.13,10.19,4.46,12.31,1.83,1.67,3.72,3.39,3.85,7.33.11,3.32-3.21,8.26-12.89,11.23-2.56.79-5.5,1.34-8.2,1.34Z"/>
  </g>
  <g>
    <path class="cls-5" d="M118.08,150.38s-16.1,2.86-20.51-6.75c0,0,5.89-8.83,2-13.76-1.18-1.5-2.33-1.44-3.36-1.27-2.36.4-4.09,3.34-4.09,3.34,0,0,1.3-11.94-3.89-12.2-5.19-.26-4.67,8.05-4.67,8.05,0,0-2.3-6.23-5.19-6.15-.87.02-2.63.51-3.05,2.16-.78,3.11,1.75,8.15,1.75,8.15.4.43-1.53-1.51-3.57-2.37-2.1-.89-4.72.39-4.61,3.28.17,4.37,3.47,9.82,10.14,14.61,0,0,4.41,27.91,44.51,23.69l-5.45-20.77Z"/>
    <path class="cls-8" d="M115.79,172.95c-10.4,0-22.25-2.37-30.54-11.11-5.38-5.68-7.05-11.7-7.47-13.58-6.34-4.68-10.08-10.25-10.27-15.35-.07-1.75.65-3.27,1.97-4.18,1.31-.9,3.06-1.07,4.56-.43.08.03.16.07.24.1-.42-1.61-.67-3.42-.29-4.94.54-2.14,2.63-3.16,4.35-3.2,1.75-.05,3.24,1.3,4.34,2.84.33-1.2.88-2.39,1.76-3.28,1.01-1.03,2.35-1.53,3.87-1.45,1.24.06,2.34.61,3.18,1.6,1.69,1.98,2.13,5.53,2.17,8.29.68-.48,1.46-.86,2.33-1.01.86-.15,2.89-.49,4.67,1.77,3.82,4.83-.11,12.36-1.5,14.68,4.36,7.75,18.54,5.35,18.69,5.32.7-.12,1.39.31,1.57,1.01l5.45,20.77c.1.39.03.8-.2,1.13-.23.33-.59.55-.99.59-2.47.26-5.13.43-7.9.43ZM72.12,130.67c-.39,0-.77.11-1.09.33-.54.37-.81.99-.77,1.8.16,4.29,3.74,9.35,9.57,13.54.3.21.5.54.56.9.01.06,1.15,6.74,6.96,12.8,7.44,7.77,19.33,11.17,34.44,9.89l-4.73-18.02c-1.6.19-4.52.41-7.72.06-6.5-.69-11-3.38-13.02-7.77-.2-.44-.16-.94.11-1.34,1.48-2.23,4.74-8.75,2.06-12.14-.73-.93-1.26-.89-2.05-.76-1.4.24-2.73,2.02-3.13,2.68-.33.56-1.01.81-1.62.61-.62-.2-1.01-.81-.94-1.46.31-2.9.21-8.18-1.37-10.05-.35-.41-.73-.61-1.22-.63-.74-.04-1.3.16-1.77.63-1.4,1.42-1.53,4.78-1.46,5.96.04.68-.42,1.29-1.09,1.43-.67.14-1.34-.23-1.58-.87-.93-2.5-2.73-5.25-3.84-5.25,0,0-.01,0-.02,0-.01,0-1.49.09-1.75,1.12-.52,2.07.92,5.7,1.59,7.08.47.68.2,1.4-.13,1.75-.09.1-.94.92-2.02-.01-1.18-1.01-2.23-1.72-3.14-2.1-.27-.11-.55-.17-.83-.17Z"/>
  </g>
  <g>
    <path class="cls-5" d="M141.45,203.35l-4.15,19.73s-11.68-5.45-13.76,3.12c-2.08,8.57,23.11,16.36,28.82,9.87,5.71-6.49,8.05-32.72,8.05-32.72"/>
    <path class="cls-8" d="M144.72,239.84c-4.88,0-10.64-1.49-15.2-3.86-5.51-2.87-8.18-6.55-7.32-10.1.58-2.41,1.88-4.11,3.85-5.06,3.38-1.63,7.88-.45,10.24.38l3.82-18.13c.16-.75.89-1.22,1.63-1.07.75.16,1.22.89,1.07,1.63l-4.15,19.73c-.09.41-.36.76-.73.95-.38.19-.82.19-1.2.02-1.64-.76-6.56-2.44-9.48-1.03-1.2.58-1.97,1.63-2.36,3.22-.53,2.19,1.68,4.8,5.91,7.01,7.6,3.96,17.77,4.76,20.53,1.62,4.44-5.04,7.07-24.76,7.71-31.93.07-.76.74-1.32,1.5-1.25.76.07,1.32.74,1.25,1.5,0,.07-.6,6.7-1.9,14.04-1.77,10.03-3.95,16.58-6.49,19.46-1.76,2-4.96,2.86-8.67,2.86Z"/>
  </g>
  <g>
    <path class="cls-5" d="M112.18,132.85s-26.04-32.87,11.29-52.97c33.04-17.79,55.82,0,55.82,0,0,0,20.84-13.57,48.88-2.66,28.04,10.91,41.48,33.36,19.47,55.43l.58,52.06s-.39,21.81-32.13,23.56c-31.74,1.75-95.61-2.14-95.61-2.14,0,0-12.66,2.14-10.52-25.51,2.14-27.65,2.21-47.77,2.21-47.77Z"/>
    <path class="cls-8" d="M196.1,210.11c-31.86,0-72.97-2.43-75.58-2.59-.78.08-3.83.19-6.7-2.43-4.42-4.04-6.19-12.31-5.24-24.57,1.93-24.99,2.17-44.03,2.2-47.21-1.87-2.51-11.29-16.06-8.23-30.87,1.98-9.61,8.8-17.61,20.25-23.77,9.63-5.18,24.6-10.57,41.26-6.8,8.03,1.82,13.36,5.06,15.28,6.36,4.21-2.43,23.71-12.25,49.31-2.3,17.07,6.64,28.29,17.24,30.79,29.1,1.99,9.42-1.62,19.16-10.43,28.18l.58,51.48c0,.28-.15,5.99-4.42,11.94-3.88,5.42-12.07,12.08-29.01,13.01-5.79.32-12.69.45-20.07.45ZM120.5,204.76s.05,0,.07,0c.64.04,64.16,3.87,95.45,2.14,30-1.66,30.81-21.38,30.83-22.21l-.58-52.02c0-.37.14-.73.4-.99,8.42-8.45,11.92-17.47,10.1-26.08-2.31-10.92-12.91-20.8-29.09-27.09-27.01-10.5-47.42,2.4-47.63,2.53-.49.32-1.14.29-1.6-.07-.05-.04-5.66-4.33-15.11-6.44-8.71-1.94-22.58-2.38-39.21,6.57-10.7,5.76-17.04,13.12-18.86,21.88-3.07,14.8,7.88,28.87,7.99,29.01.19.24.3.55.3.86,0,.2-.09,20.49-2.21,47.88-1.09,14.08,1.73,19.88,4.28,22.26,2.25,2.1,4.54,1.79,4.64,1.78.07-.01.15-.02.23-.02Z"/>
  </g>
  <path class="cls-6" d="M105.62,112.73s.32-7.01,5.06-13.6c4.11-5.71,11.86-11,21.81-12.44,21.42-3.12,36.61,9.29,36.61,9.29,0,0,20.09-12.2,41.54-8.69,8.66,1.42,17.37,8.14,21.84,14.63,5.23,7.59,3.18,22.49-6.13,34.05v52.71s1.88,17.42-12.53,18.2c-8,.43-30.18,1.21-53.7-.25-18.36-1.14-37.24-.84-41.33-2.01-3.41-.97-7.33-2.19-7.69-17.72-.09-3.8.71-8,1.01-13.79,1.49-29.46,1.43-41.01,1.43-41.01,0,0-8.02-8.59-7.93-19.36Z"/>
  <circle class="cls-1" cx="134.77" cy="144.28" r="9.87"/>
  <circle class="cls-1" cx="204.74" cy="146.18" r="9.87"/>
  <g>
    <path class="cls-5" d="M247.65,158.33s-8.08,31.21-36.3,33.31c0,0-20.59,11.42-19.93-10.41.66-21.73,19.29-7.5,19.29-7.5,0,0,16.21.53,16.52-14.06"/>
    <path class="cls-8" d="M200.79,196c-1.97,0-3.93-.39-5.65-1.44-3.59-2.19-5.31-6.69-5.1-13.38.2-6.69,2.11-10.93,5.66-12.62,5.74-2.73,13.61,2.47,15.46,3.78,1.58-.03,7.42-.41,11.21-4.01,2.23-2.12,3.4-5.05,3.48-8.7.02-.76.65-1.37,1.41-1.35.76.02,1.37.65,1.35,1.41-.09,4.42-1.56,8.01-4.35,10.66-5.24,4.97-13.25,4.77-13.59,4.76-.29,0-.56-.11-.79-.28-2.24-1.7-8.94-5.7-12.99-3.77-2.54,1.21-3.91,4.65-4.08,10.22-.17,5.62,1.1,9.3,3.78,10.94,5.12,3.12,14.02-1.73,14.11-1.78.17-.1.37-.15.57-.17,26.89-2,34.99-31.98,35.07-32.28.19-.74.94-1.18,1.68-.99.74.19,1.18.94.99,1.68-.08.33-2.15,8.13-7.77,16.3-7.44,10.82-17.63,17.04-29.48,18.01-1.21.63-6.09,3.01-10.95,3.01Z"/>
  </g>
  <ellipse class="cls-7" cx="188.09" cy="130.59" rx="5.16" ry="7.09"/>
  <ellipse class="cls-7" cx="151.74" cy="129.23" rx="5.16" ry="7.09"/>
  <path class="cls-7" d="M153.92,147.91s-.53-6.05,3.51-6.04c6.04.01,16.16,2.92,23.56.97,7.4-1.95,7.79,14.8-5.06,18.69-12.85,3.89-22.39-5.65-22-13.63Z"/>
  <path class="cls-9" d="M161.06,154.15c0-2.27,2.34-5.06,8.11-4.35,5.78.71,10.61,1.17,9.93,5.26-.22,1.34-2.5,2.78-4.61,3.57-2.32.87-5.51.65-7.85.26-3.23-.53-5.58-3.78-5.58-4.74Z"/>
  <g>
    <ellipse class="cls-5" cx="83.4" cy="128.56" rx="40.02" ry="15.72"/>
    <path class="cls-8" d="M83.4,145.66c-23.21,0-41.4-7.51-41.4-17.1s18.18-17.1,41.4-17.1,41.4,7.51,41.4,17.1-18.18,17.1-41.4,17.1ZM83.4,114.22c-23.11,0-38.64,7.41-38.64,14.34s15.53,14.34,38.64,14.34,38.64-7.41,38.64-14.34-15.53-14.34-38.64-14.34Z"/>
  </g>
  <g>
    <ellipse class="cls-2" cx="83.95" cy="128.56" rx="40.02" ry="15.72"/>
    <path class="cls-8" d="M83.95,145.66c-23.21,0-41.4-7.51-41.4-17.1s18.18-17.1,41.4-17.1,41.4,7.51,41.4,17.1-18.18,17.1-41.4,17.1ZM83.95,114.22c-23.11,0-38.64,7.41-38.64,14.34s15.53,14.34,38.64,14.34,38.64-7.41,38.64-14.34-15.53-14.34-38.64-14.34Z"/>
  </g>
  <g>
    <path class="cls-2" d="M113.24,118.7c0,16.6-58.59,16.6-58.59,0s13.12-30.06,29.29-30.06,29.29,13.46,29.29,30.06Z"/>
    <path class="cls-8" d="M83.95,132.53c-7.84,0-15.16-1.14-20.63-3.2-8.3-3.14-10.05-7.51-10.05-10.63,0-17.34,13.76-31.44,30.67-31.44s30.67,14.1,30.67,31.44c0,3.12-1.74,7.49-10.05,10.63-5.46,2.06-12.79,3.2-20.63,3.2ZM83.95,90.02c-15.39,0-27.91,12.87-27.91,28.68,0,4.07,4.49,6.62,8.26,8.05,5.16,1.95,12.14,3.02,19.65,3.02s14.49-1.07,19.65-3.02c3.77-1.42,8.26-3.98,8.26-8.05,0-15.81-12.52-28.68-27.91-28.68Z"/>
  </g>
  <path class="cls-8" d="M88.64,89.58c-.76,0-1.38-.62-1.38-1.38,0-2.86-1.69-5.28-3.68-5.28s-3.68,2.42-3.68,5.28c0,.76-.62,1.38-1.38,1.38s-1.38-.62-1.38-1.38c0-4.43,2.89-8.04,6.44-8.04s6.44,3.61,6.44,8.04c0,.76-.62,1.38-1.38,1.38Z"/>
  <g>
    <path class="cls-4" d="M214.61,172.56s6.64-11.09,10.77-10.12c4.13.97,20.32,3.49,14.22,22.37-6.1,18.88,7.58,28.16,5.05,29.33s-26.5,13.63-25.07,3.31c0,0,15.21-43.91-4.98-44.89Z"/>
    <path class="cls-8" d="M223.59,222.89c-1.61,0-2.85-.33-3.76-.99-.93-.68-1.97-2.03-1.6-4.63.01-.09.03-.18.06-.26.1-.29,9.95-29.1,2.9-39.53-1.51-2.24-3.69-3.39-6.65-3.54-.48-.02-.92-.3-1.15-.73-.23-.43-.22-.94.03-1.36,1.2-2,7.41-11.9,12.27-10.75.2.05.44.1.69.16,3.18.71,10.62,2.36,14.1,8.43,2.31,4.04,2.46,9.27.43,15.55-4.09,12.64,1.04,20.63,3.8,24.92,1.22,1.89,1.89,2.94,1.56,4.05-.15.52-.52.94-1.04,1.18-.18.08-.48.23-.88.42-9.74,4.75-16.52,7.07-20.77,7.07ZM220.94,217.77c-.17,1.41.34,1.77.51,1.9,1.05.76,5.28,1.68,21.71-6.33.07-.04.15-.07.22-.11-.24-.44-.64-1.06-.98-1.58-2.79-4.34-8.59-13.38-4.1-27.26,1.78-5.51,1.72-10-.2-13.33-2.87-5.02-9.24-6.43-12.3-7.11-.27-.06-.52-.11-.73-.17-1.66-.39-5.27,3.41-8.14,7.69,2.76.61,4.95,2.1,6.55,4.46,7.63,11.29-1.68,39.35-2.53,41.84Z"/>
  </g>
  <g>
    <path class="cls-4" d="M142.44,60.44s-22.78-4.67-17.33-23.37c5.45-18.69,20.84-17.72,20.84-17.72,0,0,7.21-19.08,29.79-17.92,22.59,1.17,25.51,11.49,25.51,11.49,0,0,12.72-7.98,25.59-2.79,9.77,3.94,18.22,13.5,15.5,25.77,0,0,18.31,4.48,12.46,25.7-5.84,21.23-42.06,11.29-42.06,11.29l-70.3-12.46Z"/>
    <path class="cls-8" d="M230.59,76.6c-9.15,0-17.3-2.12-18.16-2.35l-70.24-12.45s-.02,0-.04,0c-.49-.1-11.97-2.54-17-10.88-2.47-4.1-2.94-8.89-1.38-14.23,4.88-16.73,17.61-18.54,21.26-18.7,1.82-3.86,10.3-18.99,30.77-17.92,18.26.94,24.26,7.79,26.06,10.93,3.72-1.95,14.46-6.59,25.49-2.14,5.42,2.19,10.05,5.83,13.06,10.27,3.24,4.78,4.44,10.23,3.51,15.83,2.39.85,7.61,3.25,10.8,8.69,2.91,4.96,3.38,11.12,1.4,18.33-2.57,9.33-11.05,14.39-24.53,14.62-.34,0-.67,0-1.01,0ZM142.7,59.08l70.28,12.46s.08.02.12.03c.35.1,34.96,9.32,40.37-10.33,1.77-6.45,1.4-11.89-1.1-16.17-3.55-6.07-10.29-7.81-10.36-7.83-.73-.18-1.18-.91-1.02-1.64,2.57-11.58-5.51-20.5-14.67-24.19-12.04-4.86-24.22,2.61-24.34,2.68-.37.23-.82.27-1.23.12-.4-.16-.71-.49-.83-.91-.02-.08-3.13-9.39-24.25-10.49-21.28-1.1-28.15,16.29-28.43,17.03-.22.56-.76.93-1.38.89-.58-.03-14.36-.62-19.42,16.73-1.33,4.56-.96,8.6,1.09,12.02,4.32,7.18,14.72,9.51,15.18,9.61Z"/>
  </g>
  <g>
    <path class="cls-4" d="M139.99,78.35l3.85-21.07s19.86-10.63,44.72-4.84c28.81,6.71,41.35,18.7,41.35,18.7l-2.53,13.92s-4.35-6.06-20.7-8.67c-16.36-2.61-28.02,4.02-28.02,4.02,0,0-10.97-6.44-21.29-6.62-10.32-.18-17.37,4.55-17.37,4.55Z"/>
    <path class="cls-8" d="M227.38,86.45c-.44,0-.86-.21-1.12-.58-.03-.05-4.38-5.65-19.8-8.11-15.65-2.5-27,3.8-27.12,3.86-.43.24-.95.24-1.38,0-.11-.06-10.79-6.26-20.62-6.43-9.74-.16-16.52,4.27-16.58,4.31-.46.31-1.06.31-1.52,0-.46-.3-.7-.85-.6-1.4l3.84-21.07c.08-.41.34-.77.71-.97.83-.44,20.61-10.8,45.68-4.96,28.85,6.72,41.47,18.55,41.99,19.05.34.32.49.79.4,1.24l-2.53,13.92c-.1.54-.51.98-1.05,1.1-.1.02-.2.03-.3.03ZM198.95,74.41c2.49,0,5.14.19,7.94.63,11.08,1.77,16.88,5.13,19.59,7.27l1.94-10.64c-2.68-2.27-15.37-12.1-40.17-17.88-21.71-5.06-39.75,2.78-43.17,4.42l-3.2,17.54c3.05-1.45,8.57-3.45,15.52-3.33,9.2.16,18.69,5.01,21.29,6.43,2.28-1.14,9.79-4.45,20.27-4.45Z"/>
  </g>
  <g>
    <path class="cls-3" d="M157.66,52.51c-1.64-2.14-7.39-4.28-6.56-13.04"/>
    <path class="cls-8" d="M157.67,53.89c-.41,0-.82-.19-1.09-.54-.27-.35-.78-.78-1.37-1.27-2.31-1.94-6.19-5.19-5.47-12.74.07-.76.75-1.31,1.5-1.24.76.07,1.32.74,1.24,1.5-.58,6.11,2.24,8.47,4.5,10.37.71.6,1.33,1.11,1.78,1.7.46.6.35,1.47-.25,1.93-.25.19-.55.29-.84.29Z"/>
  </g>
  <g>
    <path class="cls-3" d="M185.51,51.82c1.15-1.32,4.26-4.89,4.07-9.62"/>
    <path class="cls-8" d="M185.51,53.2c-.32,0-.64-.11-.91-.34-.57-.5-.63-1.37-.13-1.95h0c1.07-1.23,3.9-4.47,3.73-8.66-.03-.76.56-1.4,1.32-1.43.76-.03,1.4.56,1.43,1.32.22,5.29-3.14,9.14-4.4,10.59-.27.31-.66.47-1.04.47Z"/>
  </g>
  <g>
    <path class="cls-3" d="M203.91,56.97s4.76-1.4,5.54-7.24"/>
    <path class="cls-8" d="M203.9,58.35c-.6,0-1.15-.39-1.32-.99-.21-.73.2-1.49.93-1.71.18-.06,3.92-1.29,4.57-6.11.1-.76.8-1.29,1.55-1.18.76.1,1.29.79,1.19,1.55-.89,6.65-6.29,8.32-6.51,8.38-.13.04-.26.06-.39.06Z"/>
  </g>
</svg>